<svg id="Calque_1" data-name="Calque 1" xmlns="http://www.w3.org/2000/svg" xmlns:xlink="http://www.w3.org/1999/xlink" viewBox="0 0 328.67 858.61"><defs><style>.cls-1{fill:url(#Dégradé_sans_nom_109);}.cls-2{fill:url(#Dégradé_sans_nom_61);}.cls-3{fill:url(#Dégradé_sans_nom_60);}.cls-4{fill:url(#Dégradé_sans_nom_59);}.cls-5{fill:url(#Dégradé_sans_nom_58);}.cls-6{fill:url(#Dégradé_sans_nom_57);}.cls-7{fill:url(#Dégradé_sans_nom_56);}.cls-8{fill:url(#Dégradé_sans_nom_55);}.cls-9{fill:url(#Dégradé_sans_nom_54);}.cls-10{fill:url(#Dégradé_sans_nom_53);}.cls-11{fill:url(#Dégradé_sans_nom_52);}.cls-12{fill:url(#Dégradé_sans_nom_51);}.cls-13{fill:url(#Dégradé_sans_nom_50);}.cls-14{fill:url(#Dégradé_sans_nom_49);}.cls-15{fill:url(#Dégradé_sans_nom_48);}.cls-16{fill:url(#Dégradé_sans_nom_47);}.cls-17{fill:url(#Dégradé_sans_nom_46);}.cls-18{fill:url(#Dégradé_sans_nom_45);}.cls-19{fill:url(#Dégradé_sans_nom_44);}.cls-20{fill:url(#Dégradé_sans_nom_43);}.cls-21{fill:url(#Dégradé_sans_nom_42);}.cls-22{fill:url(#Dégradé_sans_nom_41);}.cls-23{fill:url(#Dégradé_sans_nom_40);}.cls-24{fill:url(#Dégradé_sans_nom_39);}.cls-25{fill:url(#Dégradé_sans_nom_38);}.cls-26{fill:url(#Dégradé_sans_nom_37);}.cls-27{fill:url(#Dégradé_sans_nom_36);}.cls-28{fill:url(#Dégradé_sans_nom_35);}.cls-29{fill:url(#Dégradé_sans_nom_34);}.cls-30{fill:url(#Dégradé_sans_nom_33);}.cls-31{fill:url(#Dégradé_sans_nom_32);}.cls-32{fill:url(#Dégradé_sans_nom_31);}.cls-33{fill:url(#Dégradé_sans_nom_30);}.cls-34{fill:url(#Dégradé_sans_nom_29);}.cls-35{fill:url(#Dégradé_sans_nom_28);}.cls-36{fill:url(#Dégradé_sans_nom_27);}.cls-37{fill:url(#Dégradé_sans_nom_26);}.cls-38{fill:url(#Dégradé_sans_nom_25);}.cls-39{fill:url(#Dégradé_sans_nom_24);}.cls-40{fill:url(#Dégradé_sans_nom_23);}.cls-41{fill:url(#Dégradé_sans_nom_22);}.cls-42{fill:url(#Dégradé_sans_nom_21);}.cls-43{fill:url(#Dégradé_sans_nom_20);}.cls-44{fill:url(#Dégradé_sans_nom_19);}.cls-45{fill:url(#Dégradé_sans_nom_18);}.cls-46{fill:url(#Dégradé_sans_nom_17);}.cls-47{fill:url(#Dégradé_sans_nom_16);}.cls-48{fill:url(#Dégradé_sans_nom_15);}.cls-49{fill:url(#Dégradé_sans_nom_14);}.cls-50{fill:url(#Dégradé_sans_nom_13);}.cls-51{fill:url(#Dégradé_sans_nom_12);}.cls-52{fill:url(#Dégradé_sans_nom_11);}.cls-53{fill:url(#Dégradé_sans_nom_10);}.cls-54{fill:url(#Dégradé_sans_nom_9);}.cls-55{fill:url(#Dégradé_sans_nom_8);}.cls-56{fill:url(#Dégradé_sans_nom_7);}.cls-57{fill:url(#Dégradé_sans_nom_6);}.cls-58{fill:url(#Dégradé_sans_nom_5);}.cls-59{fill:url(#Dégradé_sans_nom_4);}.cls-60{fill:url(#Dégradé_sans_nom_3);}.cls-61{fill:url(#Dégradé_sans_nom_2);}.cls-62{fill:#3766af;}</style><linearGradient id="Dégradé_sans_nom_109" x1="207.09" y1="421.06" x2="430.63" y2="421.06" gradientUnits="userSpaceOnUse"><stop offset="0" stop-color="#eabe00"/><stop offset="1" stop-color="#941914"/></linearGradient><linearGradient id="Dégradé_sans_nom_61" x1="208.48" y1="420.93" x2="427.28" y2="420.93" gradientUnits="userSpaceOnUse"><stop offset="0" stop-color="#e7bc11"/><stop offset="1" stop-color="#941b16"/></linearGradient><linearGradient id="Dégradé_sans_nom_60" x1="210.24" y1="420.8" x2="424.36" y2="420.8" gradientUnits="userSpaceOnUse"><stop offset="0" stop-color="#e5bb1c"/><stop offset="1" stop-color="#941d18"/></linearGradient><linearGradient id="Dégradé_sans_nom_59" x1="211.8" y1="420.68" x2="421.23" y2="420.68" gradientUnits="userSpaceOnUse"><stop offset="0" stop-color="#e3b924"/><stop offset="1" stop-color="#931f1a"/></linearGradient><linearGradient id="Dégradé_sans_nom_58" x1="213.35" y1="420.55" x2="418.12" y2="420.55" gradientUnits="userSpaceOnUse"><stop offset="0" stop-color="#e0b82b"/><stop offset="1" stop-color="#93211c"/></linearGradient><linearGradient id="Dégradé_sans_nom_57" x1="214.9" y1="420.42" x2="415.01" y2="420.42" gradientUnits="userSpaceOnUse"><stop offset="0" stop-color="#deb631"/><stop offset="1" stop-color="#92221e"/></linearGradient><linearGradient id="Dégradé_sans_nom_56" x1="216.43" y1="420.29" x2="411.91" y2="420.29" gradientUnits="userSpaceOnUse"><stop offset="0" stop-color="#dbb536"/><stop offset="1" stop-color="#922420"/></linearGradient><linearGradient id="Dégradé_sans_nom_55" x1="214.5" y1="420.17" x2="408.8" y2="420.17" gradientUnits="userSpaceOnUse"><stop offset="0" stop-color="#d9b33b"/><stop offset="1" stop-color="#912522"/></linearGradient><linearGradient id="Dégradé_sans_nom_54" x1="212.31" y1="420.04" x2="405.69" y2="420.04" gradientUnits="userSpaceOnUse"><stop offset="0" stop-color="#d6b13f"/><stop offset="1" stop-color="#912724"/></linearGradient><linearGradient id="Dégradé_sans_nom_53" x1="210.26" y1="419.91" x2="402.58" y2="419.91" gradientUnits="userSpaceOnUse"><stop offset="0" stop-color="#d4b044"/><stop offset="1" stop-color="#902926"/></linearGradient><linearGradient id="Dégradé_sans_nom_52" x1="208.44" y1="419.78" x2="399.66" y2="419.78" gradientUnits="userSpaceOnUse"><stop offset="0" stop-color="#d1af48"/><stop offset="1" stop-color="#902a29"/></linearGradient><linearGradient id="Dégradé_sans_nom_51" x1="206.3" y1="419.66" x2="396.39" y2="419.66" gradientUnits="userSpaceOnUse"><stop offset="0" stop-color="#cfad4c"/><stop offset="1" stop-color="#8f2b2b"/></linearGradient><linearGradient id="Dégradé_sans_nom_50" x1="204.34" y1="419.53" x2="393.33" y2="419.53" gradientUnits="userSpaceOnUse"><stop offset="0" stop-color="#cdac50"/><stop offset="1" stop-color="#8f2d2d"/></linearGradient><linearGradient id="Dégradé_sans_nom_49" x1="202.35" y1="419.4" x2="390.53" y2="419.4" gradientUnits="userSpaceOnUse"><stop offset="0" stop-color="#caaa54"/><stop offset="1" stop-color="#8e2e2f"/></linearGradient><linearGradient id="Dégradé_sans_nom_48" x1="200.33" y1="419.28" x2="387.53" y2="419.28" gradientUnits="userSpaceOnUse"><stop offset="0" stop-color="#c8a957"/><stop offset="1" stop-color="#8d3032"/></linearGradient><linearGradient id="Dégradé_sans_nom_47" x1="198.31" y1="419.15" x2="384.56" y2="419.15" gradientUnits="userSpaceOnUse"><stop offset="0" stop-color="#c5a75b"/><stop offset="1" stop-color="#8d3134"/></linearGradient><linearGradient id="Dégradé_sans_nom_46" x1="196.26" y1="419.03" x2="381.58" y2="419.03" gradientUnits="userSpaceOnUse"><stop offset="0" stop-color="#c2a65e"/><stop offset="1" stop-color="#8c3237"/></linearGradient><linearGradient id="Dégradé_sans_nom_45" x1="194.19" y1="418.9" x2="378.45" y2="418.9" gradientUnits="userSpaceOnUse"><stop offset="0" stop-color="#c0a561"/><stop offset="1" stop-color="#8b3439"/></linearGradient><linearGradient id="Dégradé_sans_nom_44" x1="192.12" y1="418.78" x2="375.55" y2="418.78" gradientUnits="userSpaceOnUse"><stop offset="0" stop-color="#bda364"/><stop offset="1" stop-color="#8b353b"/></linearGradient><linearGradient id="Dégradé_sans_nom_43" x1="190.07" y1="418.65" x2="372.65" y2="418.65" gradientUnits="userSpaceOnUse"><stop offset="0" stop-color="#baa267"/><stop offset="1" stop-color="#8a363e"/></linearGradient><linearGradient id="Dégradé_sans_nom_42" x1="188.19" y1="418.52" x2="370.01" y2="418.52" gradientUnits="userSpaceOnUse"><stop offset="0" stop-color="#b8a06a"/><stop offset="1" stop-color="#893740"/></linearGradient><linearGradient id="Dégradé_sans_nom_41" x1="186.03" y1="418.38" x2="366.96" y2="418.38" gradientUnits="userSpaceOnUse"><stop offset="0" stop-color="#b59f6d"/><stop offset="1" stop-color="#883942"/></linearGradient><linearGradient id="Dégradé_sans_nom_40" x1="183.84" y1="418.26" x2="364.13" y2="418.26" gradientUnits="userSpaceOnUse"><stop offset="0" stop-color="#b29d70"/><stop offset="1" stop-color="#883a45"/></linearGradient><linearGradient id="Dégradé_sans_nom_39" x1="181.72" y1="418.13" x2="361.3" y2="418.13" gradientUnits="userSpaceOnUse"><stop offset="0" stop-color="#b09c73"/><stop offset="1" stop-color="#873b47"/></linearGradient><linearGradient id="Dégradé_sans_nom_38" x1="179.63" y1="418" x2="358.5" y2="418" gradientUnits="userSpaceOnUse"><stop offset="0" stop-color="#ad9a75"/><stop offset="1" stop-color="#863d4a"/></linearGradient><linearGradient id="Dégradé_sans_nom_37" x1="177.61" y1="417.88" x2="355.69" y2="417.88" gradientUnits="userSpaceOnUse"><stop offset="0" stop-color="#aa9978"/><stop offset="1" stop-color="#853e4c"/></linearGradient><linearGradient id="Dégradé_sans_nom_36" x1="175.58" y1="417.75" x2="352.85" y2="417.75" gradientUnits="userSpaceOnUse"><stop offset="0" stop-color="#a7977a"/><stop offset="1" stop-color="#843f4f"/></linearGradient><linearGradient id="Dégradé_sans_nom_35" x1="173.54" y1="417.62" x2="353.62" y2="417.62" gradientUnits="userSpaceOnUse"><stop offset="0" stop-color="#a5967d"/><stop offset="1" stop-color="#834151"/></linearGradient><linearGradient id="Dégradé_sans_nom_34" x1="171.48" y1="417.5" x2="355.92" y2="417.5" gradientUnits="userSpaceOnUse"><stop offset="0" stop-color="#a2957f"/><stop offset="1" stop-color="#824254"/></linearGradient><linearGradient id="Dégradé_sans_nom_33" x1="169.42" y1="417.37" x2="358.21" y2="417.37" gradientUnits="userSpaceOnUse"><stop offset="0" stop-color="#9f9381"/><stop offset="1" stop-color="#814357"/></linearGradient><linearGradient id="Dégradé_sans_nom_32" x1="167.34" y1="417.24" x2="360.5" y2="417.24" gradientUnits="userSpaceOnUse"><stop offset="0" stop-color="#9c9283"/><stop offset="1" stop-color="#7f4559"/></linearGradient><linearGradient id="Dégradé_sans_nom_31" x1="165.24" y1="417.12" x2="362.78" y2="417.12" gradientUnits="userSpaceOnUse"><stop offset="0" stop-color="#9a9085"/><stop offset="1" stop-color="#7e465c"/></linearGradient><linearGradient id="Dégradé_sans_nom_30" x1="163.16" y1="416.99" x2="365.05" y2="416.99" gradientUnits="userSpaceOnUse"><stop offset="0" stop-color="#978f87"/><stop offset="1" stop-color="#7d475e"/></linearGradient><linearGradient id="Dégradé_sans_nom_29" x1="161.24" y1="416.86" x2="367.32" y2="416.86" gradientUnits="userSpaceOnUse"><stop offset="0" stop-color="#948d89"/><stop offset="1" stop-color="#7c4861"/></linearGradient><linearGradient id="Dégradé_sans_nom_28" x1="159.06" y1="416.74" x2="369.59" y2="416.74" gradientUnits="userSpaceOnUse"><stop offset="0" stop-color="#918c8b"/><stop offset="1" stop-color="#7a4a64"/></linearGradient><linearGradient id="Dégradé_sans_nom_27" x1="156.9" y1="416.61" x2="371.86" y2="416.61" gradientUnits="userSpaceOnUse"><stop offset="0" stop-color="#8f8a8d"/><stop offset="1" stop-color="#794b66"/></linearGradient><linearGradient id="Dégradé_sans_nom_26" x1="154.79" y1="416.48" x2="374.11" y2="416.48" gradientUnits="userSpaceOnUse"><stop offset="0" stop-color="#8c898f"/><stop offset="1" stop-color="#774c69"/></linearGradient><linearGradient id="Dégradé_sans_nom_25" x1="152.68" y1="416.35" x2="376.35" y2="416.35" gradientUnits="userSpaceOnUse"><stop offset="0" stop-color="#898891"/><stop offset="1" stop-color="#764d6c"/></linearGradient><linearGradient id="Dégradé_sans_nom_24" x1="150.62" y1="416.23" x2="378.61" y2="416.23" gradientUnits="userSpaceOnUse"><stop offset="0" stop-color="#868692"/><stop offset="1" stop-color="#744f6e"/></linearGradient><linearGradient id="Dégradé_sans_nom_23" x1="148.56" y1="416.1" x2="380.85" y2="416.1" gradientUnits="userSpaceOnUse"><stop offset="0" stop-color="#838594"/><stop offset="1" stop-color="#735071"/></linearGradient><linearGradient id="Dégradé_sans_nom_22" x1="146.5" y1="415.97" x2="383.13" y2="415.97" gradientUnits="userSpaceOnUse"><stop offset="0" stop-color="#808396"/><stop offset="1" stop-color="#715174"/></linearGradient><linearGradient id="Dégradé_sans_nom_21" x1="144.42" y1="415.84" x2="385.41" y2="415.84" gradientUnits="userSpaceOnUse"><stop offset="0" stop-color="#7c8297"/><stop offset="1" stop-color="#6f5277"/></linearGradient><linearGradient id="Dégradé_sans_nom_20" x1="142.34" y1="415.72" x2="387.71" y2="415.72" gradientUnits="userSpaceOnUse"><stop offset="0" stop-color="#798099"/><stop offset="1" stop-color="#6d5379"/></linearGradient><linearGradient id="Dégradé_sans_nom_19" x1="140.27" y1="415.59" x2="390.02" y2="415.59" gradientUnits="userSpaceOnUse"><stop offset="0" stop-color="#767f9a"/><stop offset="1" stop-color="#6c547c"/></linearGradient><linearGradient id="Dégradé_sans_nom_18" x1="138.17" y1="415.46" x2="392.33" y2="415.46" gradientUnits="userSpaceOnUse"><stop offset="0" stop-color="#737d9c"/><stop offset="1" stop-color="#6a557f"/></linearGradient><linearGradient id="Dégradé_sans_nom_17" x1="136.08" y1="415.33" x2="394.63" y2="415.33" gradientUnits="userSpaceOnUse"><stop offset="0" stop-color="#707c9d"/><stop offset="1" stop-color="#685682"/></linearGradient><linearGradient id="Dégradé_sans_nom_16" x1="134.19" y1="415.22" x2="396.94" y2="415.22" gradientUnits="userSpaceOnUse"><stop offset="0" stop-color="#6d7b9f"/><stop offset="1" stop-color="#665784"/></linearGradient><linearGradient id="Dégradé_sans_nom_15" x1="132.06" y1="415.09" x2="399.26" y2="415.09" gradientUnits="userSpaceOnUse"><stop offset="0" stop-color="#6979a0"/><stop offset="1" stop-color="#635887"/></linearGradient><linearGradient id="Dégradé_sans_nom_14" x1="129.95" y1="414.96" x2="401.64" y2="414.96" gradientUnits="userSpaceOnUse"><stop offset="0" stop-color="#6678a2"/><stop offset="1" stop-color="#61598a"/></linearGradient><linearGradient id="Dégradé_sans_nom_13" x1="127.82" y1="414.84" x2="403.84" y2="414.84" gradientUnits="userSpaceOnUse"><stop offset="0" stop-color="#6376a3"/><stop offset="1" stop-color="#5f5a8d"/></linearGradient><linearGradient id="Dégradé_sans_nom_12" x1="125.67" y1="414.71" x2="406.14" y2="414.71" gradientUnits="userSpaceOnUse"><stop offset="0" stop-color="#5f75a4"/><stop offset="1" stop-color="#5d5b90"/></linearGradient><linearGradient id="Dégradé_sans_nom_11" x1="123.56" y1="414.58" x2="408.42" y2="414.58" gradientUnits="userSpaceOnUse"><stop offset="0" stop-color="#5c74a5"/><stop offset="1" stop-color="#5a5c92"/></linearGradient><linearGradient id="Dégradé_sans_nom_10" x1="121.46" y1="414.45" x2="410.71" y2="414.45" gradientUnits="userSpaceOnUse"><stop offset="0" stop-color="#5972a6"/><stop offset="1" stop-color="#575d95"/></linearGradient><linearGradient id="Dégradé_sans_nom_9" x1="119.34" y1="414.33" x2="413" y2="414.33" gradientUnits="userSpaceOnUse"><stop offset="0" stop-color="#5571a7"/><stop offset="1" stop-color="#545e98"/></linearGradient><linearGradient id="Dégradé_sans_nom_8" x1="117.27" y1="414.2" x2="415.25" y2="414.2" gradientUnits="userSpaceOnUse"><stop offset="0" stop-color="#526fa8"/><stop offset="1" stop-color="#525f9b"/></linearGradient><linearGradient id="Dégradé_sans_nom_7" x1="115.17" y1="414.07" x2="417.53" y2="414.07" gradientUnits="userSpaceOnUse"><stop offset="0" stop-color="#4f6ea9"/><stop offset="1" stop-color="#4e609e"/></linearGradient><linearGradient id="Dégradé_sans_nom_6" x1="113.11" y1="413.94" x2="419.81" y2="413.94" gradientUnits="userSpaceOnUse"><stop offset="0" stop-color="#4b6caa"/><stop offset="1" stop-color="#4b61a0"/></linearGradient><linearGradient id="Dégradé_sans_nom_5" x1="111.03" y1="413.81" x2="422.07" y2="413.81" gradientUnits="userSpaceOnUse"><stop offset="0" stop-color="#476bab"/><stop offset="1" stop-color="#4862a3"/></linearGradient><linearGradient id="Dégradé_sans_nom_4" x1="108.94" y1="413.69" x2="424.35" y2="413.69" gradientUnits="userSpaceOnUse"><stop offset="0" stop-color="#436aac"/><stop offset="1" stop-color="#4463a6"/></linearGradient><linearGradient id="Dégradé_sans_nom_3" x1="106.89" y1="413.56" x2="426.63" y2="413.56" gradientUnits="userSpaceOnUse"><stop offset="0" stop-color="#4068ad"/><stop offset="1" stop-color="#4064a9"/></linearGradient><linearGradient id="Dégradé_sans_nom_2" x1="104.8" y1="413.43" x2="428.91" y2="413.43" gradientUnits="userSpaceOnUse"><stop offset="0" stop-color="#3c67ae"/><stop offset="1" stop-color="#3c65ac"/></linearGradient></defs><path class="cls-1" d="M291.26.13c6.67,19.41,10.7,39.66,9.95,60.25-.71,19.51-5.63,38.52-12.69,56.65-7.94,20.42-18.38,39.45-29.64,58.19-10.42,17.33-21.06,35-26.64,54.56-5,17.4-6.28,36.69.28,53.87,5.86,15.36,17.78,27,32.06,34.74,32.52,17.64,70.73,15.34,105.16,26.9,18.39,6.17,34.69,16.86,45.37,33.32,9.67,14.9,14.41,32.77,14.52,50.46.25,38-21.88,72.06-50.29,95.71-32.72,27.24-73.49,41.05-113.45,53.78-17.92,5.7-36.67,12.59-48.79,27.76-10,12.51-13.28,28.6-6.3,43.35,7.22,15.27,21.69,25.84,34.07,36.69,13.32,11.68,26.1,24.21,37,38.23,20.22,26,31,56.63,27.69,89.72A167.92,167.92,0,0,1,304.23,842a.5.5,0,0,0,1,.26c8.52-31.13,8.35-63.37-6.22-92.67-15.32-30.82-41.5-52.87-66.62-75.42-13.37-12-27.17-27.41-24-46.82C211.85,606,231.3,592.55,250,585.14c19.69-7.8,40.36-12.94,60.13-20.61,19.11-7.41,37.75-16.26,54.78-27.73,29.26-19.71,54.39-48.44,62.88-83.36,7.7-31.68-.29-68.7-25.13-90.95-28.39-25.43-69-24.47-104-32.79-17.24-4.09-34.76-10.41-48.26-22.27-15.16-13.32-21.95-32.42-21.29-52.35,1.45-43.55,32.66-77.93,50.65-115.53,16.46-34.39,26.83-70.87,20.42-109.15a191.39,191.39,0,0,0-8-30.53c-.21-.61-1.18-.35-1,.26Z" transform="translate(-102.66 16)"/><path class="cls-2" d="M291.32-.12c6.48,19.87,10.8,40.58,10.67,61.56-.14,22.16-5.31,44-14.11,64.33-8.56,19.72-20,37.7-31.53,55.76-11.1,17.39-22,35.39-27,55.59-4.4,17.45-4.75,36.57,2.93,53.19C239,305,251.69,315.68,266,322.74c31.94,15.78,68.64,14,101.85,25.59,17.86,6.22,33.62,16.82,44,32.82,9.5,14.57,14.28,32,14.59,49.32.68,38.16-21.43,72.5-49.93,96.22-32.23,26.81-72.17,40.44-111.38,53.44-17.36,5.75-35.33,12.87-46.91,27.77-10.12,13-12.83,29.54-5.12,44.44,8,15.39,22.87,26,35.41,37.4,13,11.85,25.5,24.52,35.92,38.77,18.67,25.5,28,55.22,24.82,86.88A168.3,168.3,0,0,1,304.23,842a.5.5,0,0,0,1,.26c8.1-30.2,8.12-61.53-5.39-90.2-14.42-30.58-39.75-53.16-64.46-75.32-14-12.58-29.08-28.6-25.25-49.13s22.15-33.54,40.2-41c18.77-7.76,38.59-12.85,57.51-20.27,18.61-7.3,36.8-15.93,53.45-27C391.62,519,417.86,489,425.44,452.47c6.31-30.45-1.85-65.18-25.17-86.66C373,340.68,333.7,340.65,299.52,333c-17.07-3.84-34.43-9.64-48.32-20.62-15.43-12.19-23.62-30.09-24-49.66-.87-44.59,31.57-78.63,51.38-115.62,10-18.65,18.11-38.15,21.91-59.06a162,162,0,0,0-.36-58A230.08,230.08,0,0,0,292.28-.39c-.19-.61-1.16-.35-1,.27Z" transform="translate(-102.66 16)"/><path class="cls-3" d="M291.38-.38c12.42,40.15,16.88,83.09.8,122.94-8.4,20.8-21.06,39.39-33.65,57.81-11.49,16.81-23,34.07-29.27,53.62-5.71,17.79-7.4,37.81-.49,55.52,5.7,14.61,17,25.81,30.56,33.4,31,17.41,67.73,16.18,101,26.58,18.26,5.71,35,15.49,46.29,31.21,9.94,13.81,15.38,30.59,16.52,47.5,2.55,38-18,72.85-45.77,97.31-31.35,27.65-71.16,42-110.13,55.27-17.16,5.82-35,12.77-46.72,27.3-10.12,12.54-13.6,28.71-6.66,43.66,7.46,16.09,22.81,27.12,35.51,38.84s24.65,24.06,34.78,37.95c18.62,25.53,28.05,55.24,25,86.89A168.72,168.72,0,0,1,304.23,842a.5.5,0,0,0,1,.26c7.93-30.23,7.77-61.51-5.73-90.14-14.26-30.25-39.1-52.64-63.35-74.79-14.23-13-29-29.64-24.05-50.49,4.82-20.13,23.13-32.51,41.18-39.86,18.53-7.55,37.87-12.9,56.4-20.49s36.51-16.53,52.9-28c29.28-20.56,54.23-50.86,60.41-86.94,5.3-30.93-4.37-65.7-29.21-86-28.61-23.34-67.59-22.58-101.72-31.25-16.57-4.2-33.33-10.57-46.22-22.15-14.75-13.24-21.32-32.09-20.46-51.67,2-45.15,36.62-78.44,57.27-115.92,9.89-18,17-36.71,19.8-57.09,2.65-19.23,1.33-38.73-2.33-57.73A282.87,282.87,0,0,0,292.34-.64c-.19-.61-1.15-.35-1,.26Z" transform="translate(-102.66 16)"/><path class="cls-4" d="M291.44-.63c11.63,39.65,19.07,83.55,3.63,123.27-15.57,40.05-50.41,69-65.75,109-6.48,16.93-9.4,36-4.71,53.78,4.1,15.57,14.29,28.27,27.66,37,29.7,19.39,66.52,18.89,99.68,28.1,17.73,4.92,34.7,13,47,27.09,11.73,13.41,18.59,30.69,20.64,48.3,4.37,37.48-14.26,72.71-41,97.86C348.4,552.22,309,567.6,270.48,581c-17.14,6-35.15,12.61-47.28,26.8-10.49,12.28-14.84,28.5-8.35,43.77,6.68,15.75,21.18,26.74,33.39,38.05,12.84,11.9,25.12,24.56,35.44,38.74,18.6,25.56,28.19,55.23,25.33,86.94A170.24,170.24,0,0,1,304.23,842a.5.5,0,0,0,1,.26c7.71-30.07,7.44-61.15-5.85-89.63-14.33-30.71-39.43-53-63.62-75.81-13.85-13-27.31-29.78-21.77-50.09,5.48-20.1,24.06-32.08,42.28-39.42s37.2-13,55.35-20.77c18.78-8,37-17.6,53.37-29.93,28-21.1,51.28-51.82,55.58-87.44,3.78-31.27-7.72-65.22-33.85-84-29.78-21.37-68.41-20-102.35-29.82-16.27-4.7-32.56-11.87-44.39-24.35-14.29-15.09-18.62-35.95-15.73-56.11,6.22-43.45,40.76-74.5,61.62-111.08,10-17.57,16.36-36.12,18.31-56.3,1.88-19.46-.28-39.05-4.13-58.14C298,19.17,295.33,9.09,292.4-.9a.5.5,0,0,0-1,.27Z" transform="translate(-102.66 16)"/><path class="cls-5" d="M291.49-.88c10.92,39.28,21.07,84,6.41,123.67-14.76,39.94-50.43,67.44-67.89,105.89-7.51,16.55-11.66,35.27-8.67,53.41a62.5,62.5,0,0,0,24.74,40.05c27.86,20.83,64.28,21.44,96.78,29.44,18.13,4.47,36.06,11.57,49.47,25,12.09,12.11,19.78,28.11,23,44.82,7.2,37.12-9.06,73.34-34.75,99.66-29,29.75-68.28,46.23-106.75,60-16.86,6-34.73,12.27-47.28,25.71-11.24,12-16.79,28.6-10.7,44.48s20.22,27,32.24,38.22c12.71,11.87,24.84,24.56,35.07,38.66,18.56,25.58,28.36,55.23,25.69,87A169.34,169.34,0,0,1,304.23,842a.5.5,0,0,0,1,.26c7.59-30.31,7-61.51-6.48-90.09-14.36-30.36-39-52.33-62.72-75.26-13.77-13.33-26.36-30.43-20-50.61s25.33-31.58,43.83-38.91c18.3-7.25,37-13.3,54.95-21.43,17.77-8,35-17.56,50.36-29.65,27.64-21.76,50.17-53.39,52.75-89.38,2.29-31.94-11.33-65.09-39.1-82.28C348.16,345.69,310.41,347.2,277,336.32c-15.92-5.19-31.64-13.19-42.34-26.45-13.23-16.41-15.56-38.25-11.25-58.36C232.53,209,267.83,179.58,289,143.32A122.33,122.33,0,0,0,305.8,87.69c1.12-19.45-1.77-39-5.74-58-2.16-10.38-4.77-20.66-7.6-30.87a.5.5,0,0,0-1,.27Z" transform="translate(-102.66 16)"/><path class="cls-6" d="M291.55-1.14C296.68,18.34,301.29,38,304.22,58c3.08,21,3.69,43-3,63.36-6.78,20.75-21,38.58-34.56,55.28-12.73,15.66-26,31.16-35.54,49.07-16.37,30.79-19.62,71.46,9.13,96.06,26,22.26,62.25,24,94.15,31.19,18.25,4.12,36.71,10.28,51,22.82,12.93,11.33,21.62,26.88,25.73,43.49,9.1,36.74-5.39,73.56-30.37,100.66-28.07,30.48-66.9,47.62-105,61.82-16.44,6.13-33.87,12.14-46.46,24.93-11.4,11.59-17.8,27.88-12.56,43.87s19,27.4,30.79,38.52c12.73,12,24.88,24.78,35.15,39,18.54,25.61,28.5,55.26,26,87a170,170,0,0,1-4.49,27c-.16.62.81.89,1,.26,7.42-30.35,6.66-61.53-6.85-90.08-6.67-14.1-15.77-26.91-25.89-38.71-11.54-13.47-24.83-25-37.24-37.58-13.52-13.73-24.3-31.18-16.83-50.89,7.33-19.33,26.05-30,44.26-37.26,36.48-14.51,73.67-27.37,104.17-53.08,26.85-22.64,47.87-55.15,48.2-91.21.29-32.2-15.43-63.47-44.23-78.95C339.44,347.64,302.3,349.24,269.4,337c-16.34-6.09-32-15.69-41.24-30.9-10.84-17.84-10.58-40.05-4.65-59.51,12.44-40.8,47.91-68.22,69-104.08,10.06-17.1,14.61-35.65,14.88-55.42.27-19.4-3.35-38.8-7.44-57.7-2.23-10.32-4.77-20.56-7.46-30.77a.5.5,0,0,0-1,.26Z" transform="translate(-102.66 16)"/><path class="cls-7" d="M291.61-1.39c4.95,19.9,9.69,39.89,13.19,60.11,3.64,21.06,5.36,43.41-1.25,64.09-6.52,20.42-20.93,37.67-34.65,53.69-13,15.17-26.53,30-36.82,47.25-17.69,29.59-24.21,70.68,2.51,97.2,24.09,23.9,60.47,26.82,91.9,33.48,18.05,3.82,36.34,9.13,51.32,20.32,13.83,10.33,23.6,25.32,28.74,41.71,11.23,35.87-.94,73.19-24.71,101.1-26.28,30.87-63.62,48.79-100.66,63.33-16.73,6.57-34.73,12.25-48.19,24.71-11.68,10.81-19.3,26.55-15.63,42.61,3.82,16.68,17.68,28.88,29.54,40.19,12.76,12.17,25,25,35.31,39.36,18.52,25.65,28.63,55.29,26.36,87.1A169.27,169.27,0,0,1,304.23,842c-.15.62.81.89,1,.26,7.24-30.4,6.29-61.55-7.22-90.09-6.64-14-15.65-26.79-25.66-38.59-11.57-13.62-25-25.24-37.26-38.19-6.47-6.85-12.55-14.5-15.61-23.53a38.43,38.43,0,0,1,2-29.14c8.81-18.48,27.5-28.11,45.68-35.29,35.77-14.13,72.25-28.3,101.22-54.48,25.7-23.24,44.91-56,43.54-91.51-1.24-32.4-18.62-62.13-48.17-76.32-32.26-15.5-69.62-13.76-102.35-28-15.59-6.76-29.91-17.28-37.58-32.83-9.09-18.41-7.47-40.3-.73-59.18,14.27-40,50.42-66,72-101.59,10.32-17,14.37-35.7,14-55.5S304.26,48.83,300,29.7c-2.33-10.49-4.85-20.93-7.45-31.36-.15-.62-1.12-.36-1,.27Z" transform="translate(-102.66 16)"/><path class="cls-8" d="M291.67-1.65c4.68,19.92,9.45,39.84,13.46,59.91,4.21,21.08,7.25,43.41,1.19,64.47-5.66,19.71-19.5,36.19-32.87,51.24s-27.82,29.67-39.23,46.52c-19.16,28.3-29.83,69.15-6.07,98.19,21.29,26,57.7,30.76,88.56,36.93,18.23,3.64,36.81,8.12,52.7,18.17a81.4,81.4,0,0,1,32,39.52c13.6,35,3.86,72.9-18.68,101.77-24.7,31.64-61.18,50.44-97.56,65.43-16.81,6.92-35.05,12.56-49,24.68-12.11,10.52-20.62,26.31-17.52,42.67s15.9,28.5,27.28,39.55c12.74,12.36,25,25.22,35.46,39.62,18.84,26,29.24,56,27,88.31A171.37,171.37,0,0,1,304.23,842c-.15.63.82.89,1,.26,7.11-30.66,5.87-62-7.84-90.63-6.75-14.13-15.89-27-26-38.92-11.53-13.59-25.09-25.14-36.91-38.41-6.21-7-11.85-14.85-14.24-24-2.61-10-.8-20.3,4.2-29.25,10-18,29.09-26.81,47.42-34.1,35.34-14.07,71.39-29.66,98.84-56.82C395,506,411.89,472.92,408.33,438a92.33,92.33,0,0,0-15.7-43.33c-9.3-13.36-22.34-23-37.27-29.24-33-13.82-70.47-12.21-102.51-28.72-16-8.26-29.43-21.2-34.68-38.86-5.81-19.54-1.81-40.82,6.66-59,17.36-37.21,52.93-61.2,73.71-96.08,20.9-35.09,9.83-76.27,1.37-113.44-2.37-10.43-4.83-20.85-7.28-31.26-.15-.63-1.11-.36-1,.26Z" transform="translate(-102.66 16)"/><path class="cls-9" d="M291.72-1.9c4.42,19.93,9.21,39.78,13.68,59.71,4.43,19.72,8.5,40.32,4.6,60.49-4,20.83-17.6,37.72-31.55,53-13.41,14.7-28,28.4-40.2,44.15-21.29,27.39-36.94,68.07-16.17,100.28,17.95,27.85,53.67,35,83.82,40.88,18.47,3.62,37.4,7.35,54.18,16.23a81.41,81.41,0,0,1,35.57,37c15.93,33.22,9.36,71.3-11.1,101-23,33.35-59.19,53.49-95.55,69.24-17.18,7.44-36.05,13.24-50.57,25.52-12.06,10.21-20.87,25.65-18.48,41.85,2.46,16.71,15.3,29.34,26.76,40.67,12.47,12.32,24.5,25.12,34.71,39.41,18.54,25.93,28.85,55.79,26.79,87.86a170.85,170.85,0,0,1-4,26.62c-.14.63.82.89,1,.26,6.92-30.68,5.51-62-8.18-90.6-6.66-13.94-15.6-26.69-25.5-38.52-11.35-13.56-24.73-25.13-36.28-38.45-6.2-7.15-11.77-15.35-13.81-24.73-2.16-10,0-20.11,5.13-28.87,10.42-17.75,29.53-26.32,47.78-33.79,35.52-14.54,71.84-31.3,98.28-60,22.78-24.71,37.24-57.65,32-91.64a90.63,90.63,0,0,0-18.19-42.48c-10.59-13.32-25.14-22.13-41-27.77-33-11.71-70.29-10.84-100.8-29.61C228.69,326,217.29,311,214.31,292.3c-3.23-20.26,2.75-41.08,12.76-58.62,20.15-35.27,56.75-57.89,76.13-93.56,18.88-34.75,4.73-76.11-3.58-111.86q-3.53-15.2-6.93-30.43c-.14-.62-1.11-.36-1,.27Z" transform="translate(-102.66 16)"/><path class="cls-10" d="M291.78-2.15c4.17,19.94,9,39.74,13.84,59.52s10.1,40.28,6.89,60.74-15.91,36.73-29.64,51.44c-14.31,15.33-30.14,29.22-43.58,45.36-21.91,26.3-39.06,64.74-22.25,98.14,14.77,29.34,49.7,38.75,79.33,44.77,18.47,3.74,37.35,7,54.65,14.77,16.44,7.39,30.07,19.15,38.93,34.92,18,32,13.83,70.53-5.33,101-21.38,34-56.66,55-92.38,71.23-17,7.73-35.59,13.61-50.4,25.32-12.57,9.93-22.27,25.4-20.51,41.94s13.81,29.26,24.94,40.52c12.38,12.52,24.45,25.32,34.68,39.7,18.5,26,29,55.85,27.11,88A171.39,171.39,0,0,1,304.23,842c-.14.63.82.89,1,.26,6.73-30.74,5.13-62-8.55-90.64-6.72-14.07-15.71-27-25.67-38.91-11.25-13.52-24.66-25.09-35.79-38.67-5.83-7.12-10.82-15.24-12.48-24.42-1.83-10.21,1-20.42,6.41-29.09,10.86-17.23,30-25.39,48-33,35.4-15,71.45-32.78,96.77-62.64,21.69-25.57,34-59.12,26.57-92.59a88.81,88.81,0,0,0-20.83-40.78c-11.58-12.6-27-20.35-43.14-25.39-32.91-10.27-70.32-10.28-99.17-31.25a61.65,61.65,0,0,1-25.76-48c-.79-19.78,6.24-39.17,16.9-55.6,11.53-17.77,27-32.48,41.88-47.33,13.26-13.18,27.22-27,36-43.68,9-17.16,9.39-36.46,6.44-55.22-3-19.23-8.76-38.1-13.22-57q-3.56-15.12-6.76-30.34c-.13-.63-1.09-.36-1,.27Z" transform="translate(-102.66 16)"/><path class="cls-11" d="M291.84-2.41c3.87,19.73,8.6,39.27,13.78,58.69s11.33,39.11,9.54,59.35c-1.84,20.89-13.65,37.39-27.66,52.19-14.17,15-30.06,28.17-44.05,43.31-23.57,25.5-43.8,61.75-31.48,97.3,10.95,31.59,45,43.94,74.82,50.48,35.32,7.73,74.53,13,96.43,45.39,20.29,30.05,19.33,68.7,2.31,99.94-19.28,35.39-54,57.81-89.41,74.78-16.89,8.1-35.48,14.14-50.63,25.41-12.42,9.24-22.72,23.44-22.8,39.47-.1,17.27,11.66,31,23,42.8,12.18,12.68,24.23,25.36,34.46,39.71,18.8,26.37,29.56,56.64,27.76,89.26A172.75,172.75,0,0,1,304.23,842c-.14.63.83.9,1,.26,6.54-30.8,4.74-62-8.93-90.7C289.4,737.14,280.19,724,270,711.73c-11.43-13.75-25.42-25.52-36-40-5.71-7.79-10-16.74-10.32-26.54s3.46-19.1,9.12-26.84c11.58-15.86,30.15-23.32,47.49-31,35-15.55,70.48-34.17,94.47-65,20.72-26.66,30.73-61,20.84-94-4.46-14.86-12.63-28.72-24.17-39.18-12.78-11.59-29-18.17-45.5-22.62-32.78-8.86-71.42-10.22-97.51-34.73-30.72-28.86-19.54-74.85,3-104.88,12.61-16.78,28.37-30.71,43.47-45.16,13.3-12.74,27.42-26.42,35.29-43.36s7.12-36,3.53-54.06c-3.8-19.11-9.86-37.8-14.37-56.76Q295.8,12.51,292.8-2.67c-.12-.64-1.09-.37-1,.26Z" transform="translate(-102.66 16)"/><path class="cls-12" d="M291.89-2.66c3.6,19.5,8.25,38.78,13.66,57.86S318,93.68,317.47,113.89c-.59,21.64-12,38.61-26.59,53.69-14.29,14.78-30.47,27.58-45,42.14-24.76,24.85-46.55,59.41-37.52,96,8,32.45,40,46.94,69.66,54.27,34.6,8.56,74,11.7,98,41.46,22.74,28.16,24.68,67.45,9.4,99.5-17.09,35.84-50.39,59.35-84.84,76.87-28,14.26-73.31,26.57-76.23,64.5-1.35,17.51,9.85,31.88,21.12,44,12.09,13,24.24,25.75,34.49,40.3,18.56,26.34,29.29,56.46,27.72,88.92A173.45,173.45,0,0,1,304.23,842c-.13.63.83.9,1,.26,6.38-31.07,4.3-62.49-9.56-91.3-6.8-14.13-15.8-27.09-25.73-39.19-11.43-13.93-25.69-25.91-35.8-40.85-5.59-8.26-9.38-17.79-8.76-27.91.6-9.78,5.12-18.93,11.27-26.41,12.38-15,31.22-22,48.35-30,34.22-16,68.43-35.45,90.67-66.95,19.32-27.35,26.94-61.93,15.16-93.92a84.91,84.91,0,0,0-26.47-37.27c-13.6-10.77-30.29-16.55-46.93-20.7-32.32-8-71.2-10.81-94.89-37.32-13-14.56-17.06-34.31-14.16-53.3,3-19.85,13-37.74,25.73-53,13.18-15.78,29-29,44.1-42.84,13.47-12.41,27.84-26,35.18-43.13,7.55-17.61,5.58-37,1.14-55.16C309.85,64,303.6,45.51,299.07,26.51q-3.48-14.64-6.21-29.44c-.12-.63-1.08-.36-1,.27Z" transform="translate(-102.66 16)"/><path class="cls-13" d="M292-2.92a496.59,496.59,0,0,0,13.68,57.73c5.62,18.77,13.26,37.44,13.91,57.27,1.44,43.42-40.94,68.67-69.16,94.66C224.16,230.87,200,263.38,205,301.12a61.69,61.69,0,0,0,23.63,40.81c12.2,9.51,27,15.17,41.79,19.25,33.91,9.37,73.16,11.22,98.71,38.57,24.14,25.84,29.13,64.32,16.38,96.66C371,533.18,338.77,558.19,305,576.47c-16.74,9.07-35,15.75-51,26.1-13.74,8.9-25.84,22.41-27.88,39.25s7.89,31.3,18.6,43.31c11.87,13.28,24.13,26,34.44,40.6,18.72,26.54,29.75,56.86,28.39,89.61A174.28,174.28,0,0,1,304.23,842c-.13.63.84.9,1,.26,6.18-31.15,3.91-62.56-9.94-91.39-6.95-14.47-16.15-27.74-26.3-40.13-11.31-13.81-25.61-25.86-34.94-41.16-5.28-8.65-8.29-18.63-6.74-28.81,1.48-9.68,6.57-18.61,13.16-25.73,13.18-14.24,32.11-21.07,49.12-29.45C322.78,569.2,355.64,548.91,376,517c17.76-27.78,23.14-62.11,10-92.9a83.7,83.7,0,0,0-29.44-36.45c-14.66-10-32-15.07-49.07-19-31.91-7.39-71.16-12.14-91.5-41.29-11.26-16.14-12.76-36.72-8.16-55.43,4.81-19.6,16.2-36.63,29.8-51.24,13.94-15,30.14-27.55,45.32-41.19,13.18-11.85,27.06-25.07,33.54-42,6.94-18.11,3.76-37.73-1.45-55.84C309.74,63.15,303.44,45,299,26.19q-3.49-14.59-6-29.37c-.11-.64-1.08-.37-1,.26Z" transform="translate(-102.66 16)"/><path class="cls-14" d="M292-3.17a412.49,412.49,0,0,0,13.66,57.6c5.86,18.69,14.26,37.11,15.79,56.86.81,10.42-.52,21-4.86,30.57-4,8.77-10.09,16.36-16.7,23.28-13.83,14.45-30.11,26.33-45.27,39.31-27.37,23.44-53.46,53.94-52.23,92.23a62,62,0,0,0,18.75,43.13c11.19,10.76,25.76,17.34,40.38,22,33.83,10.73,73.52,11.35,100.78,36.9,25.56,24,33.05,62.06,22.2,94.78C371.94,531.34,340,557.7,306.33,576.7,290,586,272.1,592.84,256.29,603c-13.51,8.68-25.5,21.57-28.29,37.92-2.87,16.79,6.13,31.43,16.61,43.66,11.65,13.59,24,26.33,34.28,41.06,18.6,26.62,29.69,57,28.49,89.72A176.31,176.31,0,0,1,304.23,842c-.12.63.84.9,1,.26,5.93-31,3.57-62.17-10-90.86-6.77-14.29-15.72-27.45-25.59-39.76-11.24-14-25.65-26.32-34.69-42-5.33-9.23-7.92-19.86-5.56-30.41,2.07-9.27,7.24-17.66,13.8-24.43,13.32-13.74,32.05-20.65,48.75-29.22,32.89-16.89,65.18-38.16,84.1-70.89,16.39-28.36,19.61-62.76,4.87-92.5a83.51,83.51,0,0,0-31.74-34.65c-15.38-9.23-33-13.74-50.34-17.64-32.12-7.21-72.24-14.24-88.82-46.68-8.93-17.48-8-38.39-1.79-56.58,6.61-19.21,19.37-35.41,33.81-49.41,14.81-14.36,31.53-26.53,46.93-40.22,12.86-11.44,25.95-24.58,31.14-41.46,5.63-18.3,1.25-37.53-4.56-55.19-5.95-18.11-12.24-35.93-16.67-54.5Q295.34,11.32,293-3.44c-.1-.63-1.06-.36-1,.27Z" transform="translate(-102.66 16)"/><path class="cls-15" d="M292.07-3.43a356.73,356.73,0,0,0,13.62,57.49c6.13,18.8,15.25,37.09,17.62,56.91a61.85,61.85,0,0,1-3.4,30.08c-3.66,9.29-10,17.28-16.83,24.4-13.76,14.23-30.11,25.71-45.45,38.11-28.25,22.83-55.68,51.79-57.24,90.21-.66,16.2,4.09,32.23,14.84,44.55,10,11.42,23.71,18.73,37.76,23.88,33.16,12.14,71.86,12.05,100.72,34.48,27.74,21.55,38.42,59.56,29.69,93-10,38.35-40.68,66-73.5,85.78-16.15,9.71-33.66,17-49.68,26.9-14,8.62-26.62,21.14-30.27,37.71-3.7,16.75,4.57,31.77,14.92,44.31,11.25,13.65,23.44,26.27,33.56,40.86C297,752,308.19,782.38,307.21,815.2a177.28,177.28,0,0,1-3,26.78c-.12.63.84.9,1,.26C311,811,308.3,779.6,294.54,750.73c-6.87-14.43-15.92-27.72-25.88-40.19-11.1-13.92-25.48-26.31-33.63-42.32-9.58-18.83-3.79-39.2,10.8-53.57,13.88-13.66,33-20.77,49.83-29.91,32.37-17.56,63.83-40,80.74-73.78,14.53-29,15-63.43-1.64-91.68a84.63,84.63,0,0,0-35-32.52c-15.91-8-33.48-11.95-50.76-15.83-32-7.19-71.19-17-83.83-51.45-14.28-38.93,11-77.74,38.76-103,15.16-13.78,32-25.51,47.56-38.86,13.26-11.41,26.59-24.74,31.31-42.13,5.1-18.76-.33-38.06-6.79-55.76-6.53-17.89-12.9-35.64-17.32-54.21Q295.23,11.06,293-3.69c-.09-.64-1.06-.37-1,.26Z" transform="translate(-102.66 16)"/><path class="cls-16" d="M292.12-3.68a317.38,317.38,0,0,0,13.56,57.37c6,17.83,14.9,34.85,18.71,53.36,2.13,10.35,2.35,21.19-.72,31.38-2.81,9.28-8.24,17.38-14.7,24.51-13.49,14.89-30.44,26.33-46.34,38.42-28.94,22-58.06,48.73-63.51,86.65-2.36,16.43.3,33.65,9.86,47.48,8.56,12.38,21.49,20.79,35.15,26.63,32.58,13.92,70.47,13.55,100.75,33.16C374,414.11,388,450.62,382.16,484.33c-6.77,38.84-35.65,68.26-67.54,89-16,10.4-33.29,18.35-49.7,28-14.27,8.42-27.39,20-32.45,36.33-5.11,16.45,1.46,32,11.48,45,11,14.36,23.7,27.22,34,42.18,18.5,26.85,29.82,57.29,29.08,90.18a178.1,178.1,0,0,1-2.81,27c-.12.63.85.9,1,.26,5.58-31.54,2.66-63.15-11.29-92.19-7-14.57-16.13-28-26.17-40.65-11.14-14-25.84-26.79-32.79-43.61-8.12-19.64.4-39.82,15.69-53.17,14.4-12.56,33-19.78,49.38-29.24,31.81-18.32,62.23-42.24,76.72-77,12.29-29.51,9.84-63.71-8.73-90.1-20.84-29.61-56.11-36.67-89.2-44.46-32.93-7.75-70.89-21.5-78.26-59-8-40.86,20.16-76.24,49.75-100.44,15.47-12.64,32.16-23.76,47.24-36.88,13.17-11.45,25.41-25.13,28.56-42.86,3.3-18.52-3-36.79-9.8-53.77-7-17.54-13.37-35.14-17.73-53.56q-3.44-14.44-5.47-29.18c-.09-.63-1-.36-1,.27Z" transform="translate(-102.66 16)"/><path class="cls-17" d="M292.16-4.07a289.27,289.27,0,0,0,13,56.07c6.16,18,15.52,35,20.37,53.42,2.69,10.21,3.64,21,1.23,31.42-2.21,9.5-7.16,17.89-13.49,25.22-13.1,15.14-30.31,26.36-46.41,38-29.6,21.38-60.18,46.43-68.59,83.84-3.66,16.23-2.7,33.83,5.27,48.67,7.12,13.23,19.16,22.77,32.44,29.36,31.54,15.67,68.54,15.45,99.58,32.34,30.18,16.44,47.5,50.46,44.65,84.53-3.34,39.91-31.24,71.47-62.86,93.34-15.7,10.86-32.67,19.31-49.1,28.92-14.24,8.33-27.46,19.3-33.38,35.19-6.13,16.46-.58,32.51,9.36,46.09,10.44,14.26,22.83,26.9,32.87,41.51,18.64,27.11,30.25,57.78,29.73,91A179.19,179.19,0,0,1,304.23,842c-.11.63.85.9,1,.26,5.4-31.86,2.18-63.65-11.93-92.9-7-14.52-16.08-27.94-26-40.58-11.06-14.07-25.82-27.14-31.75-44.46-6.72-19.64,2.92-39.2,18-51.89,14.71-12.34,33.17-19.87,49.49-29.8,30.57-18.59,59.31-42.91,72.22-77.3,11.24-29.94,7.07-64.21-12.72-89.65-22.34-28.72-58.75-34.32-91.91-42.68-16-4-32.1-9.31-45.78-18.75-15.24-10.53-25.27-26.31-27.2-44.87-4.31-41.37,25.18-74.62,55.71-98,15.88-12.18,32.89-23,48-36.1,12.9-11.19,24.45-24.59,27.15-42,2.81-18.15-3.69-35.79-10.68-52.22-7.6-17.85-14.48-35.71-19-54.61a288.78,288.78,0,0,1-5.62-30.46c-.08-.63-1.08-.63-1,0Z" transform="translate(-102.66 16)"/><path class="cls-18" d="M292.22-4.32A266.22,266.22,0,0,0,304.89,51c6.29,18.14,16,34.93,21.77,53.25,6.37,20.33,4.25,40.87-9.6,57.55-12.69,15.31-30.13,26.3-46.33,37.48-29.63,20.46-60.9,43.52-72.36,79.35-5.16,16.11-6.05,34.12.19,50.07,5.49,14,16.24,24.85,29.08,32.42,30.19,17.8,66.72,18,98.22,32.5a88.59,88.59,0,0,1,51.74,80.18c.07,40.46-26.39,74-57.55,97-15.31,11.3-31.92,20.28-48.3,29.85-14.63,8.55-28.44,19.39-34.88,35.6s-1.54,32.55,8.22,46.38c10.12,14.34,22.34,27,32.19,41.6,18.3,27.1,29.71,57.62,29.4,90.6A181.42,181.42,0,0,1,304.23,842c-.11.63.86.9,1,.26,5.1-31.47,1.9-62.85-11.72-91.84-6.92-14.74-16-28.39-25.91-41.26-10.94-14.18-25.61-27.49-31-45.07-6.12-20.07,4.58-39.46,20-52,14.94-12.14,33.23-20,49.38-30.38,30.38-19.57,58.62-45.67,68.89-81.47,8.7-30.32,1.55-64-20-87.36-24.28-26.24-61.07-29.93-93.6-39.21-16-4.57-32.25-10.85-45-21.93-14-12.18-21.23-29.51-21.06-48,.38-41,30.82-71.31,61.87-93.7,16.05-11.57,33.11-22,48.08-34.95,12.67-11,23.56-24.25,25.77-41.41,2.45-19-5.35-37.11-13.09-54-8-17.37-14.7-35-19.17-53.62a265.45,265.45,0,0,1-5.43-30.4c-.07-.63-1.08-.64-1,0Z" transform="translate(-102.66 16)"/><path class="cls-19" d="M292.28-4.58a247.55,247.55,0,0,0,12.53,55.21c6.29,17.82,16,34.07,22.54,51.75,7,19,7.55,39.43-4.59,56.5-11.61,16.34-29.67,27.5-46.09,38.41-30.64,20.33-63.88,42-78.12,77.59-6.25,15.64-8.55,33.41-4.16,49.85,4,14.89,13.55,27.1,26.15,35.75C249,380,285,381.07,316.32,393.5c17,6.75,32,17.22,42.44,32.44a90.86,90.86,0,0,1,15.76,45.72c2.33,39.53-21.87,73.83-51.56,97.42-15,11.93-31.5,21.54-48,31.28-14.8,8.75-29.09,19.38-36,35.69-6.63,15.56-3.13,31.4,5.82,45.2,9.53,14.69,21.88,27.39,31.67,42,18.42,27.38,30.11,58.16,30,91.45A182.65,182.65,0,0,1,304.23,842c-.1.63.86.9,1,.26,4.9-31.78,1.42-63.37-12.36-92.58-7.12-15.09-16.39-29.06-26.54-42.26-10.72-13.93-24.75-27.31-28.88-45-4.78-20.45,7.49-39.32,23.13-51.33,14.91-11.44,32.3-19.49,47.83-30.07,29.6-20.17,56.68-47.25,64.9-83.3,7-30.69-2.3-64.13-25.28-85.93-25.59-24.29-62.33-26.94-94.43-37.13-15.94-5.06-32-12.22-43.73-24.48-13-13.56-18.1-32.14-16.34-50.61,3.95-41.42,36.77-69.85,69.06-91.68,16.33-11,33.59-21.22,48.28-34.47,12.5-11.28,22-25.22,22.7-42.52.78-18.6-7.69-35.73-15.61-52a258.83,258.83,0,0,1-19.4-53.1,247.45,247.45,0,0,1-5.24-30.35c-.07-.63-1.07-.63-1,0Z" transform="translate(-102.66 16)"/><path class="cls-20" d="M292.34-4.83A232.68,232.68,0,0,0,304.71,50.3c6.44,17.93,16.47,34.05,23.67,51.61,7.72,18.84,9.48,39.68-2.43,57.23C315.16,175,297.83,185.77,282,196c-31.74,20.4-66.79,40.9-83.39,76.54-6.86,14.73-10.18,31.57-7.71,47.74A62.28,62.28,0,0,0,214.2,359.9c26.63,21,62.21,23.12,93.19,34.05,17.18,6.07,32.93,15.21,44.49,29.54a90.92,90.92,0,0,1,19.27,46c4.57,38.68-17.44,73.74-45.8,98-14.41,12.3-30.43,22.41-46.61,32.18-14.39,8.7-28.64,18.47-36.51,33.85s-6.19,31.57,2.36,46.16c8.95,15.28,21.62,28.22,31.44,43,18.34,27.55,30.12,58.41,30.27,91.8A185.21,185.21,0,0,1,304.23,842c-.1.63.87.9,1,.26,4.7-32.09.94-63.93-13-93.35-7.13-15-16.32-29-26.37-42.25-11.2-14.73-26.11-29.5-27.78-48.94-1.71-19.92,11.73-36.9,27-48,14.81-10.74,31.24-19.08,46.09-29.83,28.78-20.84,54.42-49,60.37-85.23,5.06-30.85-6.42-63.72-30.63-83.82-26.92-22.35-63.54-24.19-95.31-35.56-16.09-5.76-32.1-14.22-42.54-28.18-11.35-15.19-14-34.83-10.39-53.13,8-40.72,42.28-66.72,75.2-87.8,27.75-17.76,68.39-38,68-76.27-.2-19-9.71-35.89-18.08-52.33a233.47,233.47,0,0,1-19.31-52.12,231.73,231.73,0,0,1-5.05-30.29c-.07-.63-1.07-.64-1,0Z" transform="translate(-102.66 16)"/><path class="cls-21" d="M292.39-5.08a220.78,220.78,0,0,0,12,54.38C310.57,66.56,320,82,327.9,98.44c8.84,18.45,13.44,39.7,2.71,58.47-9.63,16.86-27.3,27.88-43.3,37.92-31.6,19.82-66.49,38.25-86.16,71.41-16.54,27.88-19.56,66.11,4.68,90.6,23.51,23.76,59.24,27.53,89.66,36.84,17.73,5.42,35,13.1,48.08,26.57A90.64,90.64,0,0,1,367,464.51c8.05,38.08-11,74.72-38.29,100.24-13.91,13-29.72,23.79-45.82,33.89-14.62,9.17-29.54,18.66-38.13,34.18-8.21,14.86-7.76,31.11.19,46,8.21,15.35,20.72,28.24,30.31,42.73,18.45,27.86,30.51,59,30.89,92.73A187.94,187.94,0,0,1,304.23,842c-.09.63.87.9,1,.26,4.49-32.42.44-64.5-13.65-94.16-7.22-15.22-16.49-29.38-26.61-42.81-10.83-14.38-24.53-29-25.42-48-1-20.48,13.62-37.26,29.35-48.34,15-10.58,31.05-19.47,45.59-30.77,28-21.72,51.84-51.29,55-87.77,2.69-30.64-11.14-62.22-36.19-80.29-29.23-21.09-67.12-21.71-99.35-35.93-15.36-6.78-29.73-16.86-37.76-32-8.94-16.84-8.82-37-3.31-54.91,12.09-39.2,47.75-62.64,80.91-82.89,28.67-17.51,68-38.25,63.92-77.72-1.85-18.13-11.64-33.95-20-49.69a215.38,215.38,0,0,1-19.45-51.77,220.55,220.55,0,0,1-4.87-30.23c-.05-.64-1.06-.64-1,0Z" transform="translate(-102.66 16)"/><path class="cls-22" d="M292.45-5.34A210,210,0,0,0,304.18,48.8c6.15,17,15.34,32,23.74,47.87,9.77,18.46,16.27,40.15,6,59.93-8.72,16.83-25.89,27.78-41.54,37.41-32.12,19.75-67.86,36.93-89.73,69C184.42,289.83,178,328.5,200,355.2c21.12,25.61,56.94,30.79,87,39.44,17.82,5.14,35.69,11.91,49.65,24.51a90.28,90.28,0,0,1,26.14,42.62c10.39,37.16-5.92,74.52-32,101-13.58,13.8-29.37,25.19-45.51,35.78-14.28,9.36-29.1,18.59-38,33.68-8.75,14.8-9.1,31.3-1.38,46.62,7.9,15.69,20.47,28.85,30,43.58,18.12,28.13,29.82,59.42,30.12,93.16a192.68,192.68,0,0,1-1.72,26.52c-.08.64.92.63,1,0,4.25-32.64-.09-64.87-14.23-94.69-7.32-15.45-16.69-29.86-26.9-43.55-10.95-14.69-24.22-30.34-22.95-49.89,1.3-20.22,16.43-35.54,32.19-46.39,14.93-10.28,30.31-19.7,44.24-31.36,27.3-22.83,49.39-54.18,49.4-91,0-31.22-17.11-61.45-44.07-77.2-30.2-17.65-66.77-18.39-97.65-34.43-15.32-7.95-28.46-19.87-34.44-36.42-6.28-17.35-4.39-36.79,2.2-53.76,14.87-38.34,51.84-60.13,85.54-79.93C294.6,194,311.63,184.64,324.61,171c11.71-12.26,17.45-27.86,15-44.82-2.69-18.79-13.75-34.71-22.57-51A202.38,202.38,0,0,1,298,24.36a212.65,212.65,0,0,1-4.57-29.7c-.05-.63-1.05-.64-1,0Z" transform="translate(-102.66 16)"/><path class="cls-23" d="M292.51-5.59A201.21,201.21,0,0,0,304.05,48.5c6.14,16.76,15.21,31.6,24,47,10,17.49,17.95,37.89,10.31,57.89-6.58,17.22-22.77,28.71-37.85,38.06-32.83,20.34-70.11,36-94.78,67-20.3,25.48-30.86,63.76-12.28,93.16,17.63,27.9,53.06,35.31,82.6,43.4,17.84,4.89,36,10.56,51.11,21.66a89.25,89.25,0,0,1,30.42,41c13.4,36.42.17,75-24.95,102.89-13,14.42-28.46,26.33-44.38,37.3-13.95,9.63-28.82,18.62-38.19,33.21-9.12,14.22-10.88,30.58-4.05,46.14,7,16,19.61,29.32,29,44,18.22,28.47,30.16,60.07,30.7,94.15a195.76,195.76,0,0,1-1.52,26.73c-.08.64.92.63,1,0,4-33-.61-65.47-14.87-95.56-7.4-15.61-16.82-30.15-27-44.06-11-15-23.43-31.58-20.15-51.41,3.19-19.35,18-33.28,33.32-43.94,14.9-10.36,30-20.34,43.49-32.51,26.65-24,47.15-57.24,43.79-94.33-2.86-31.49-22.39-59.26-50.6-73.21-31.09-15.37-67.75-16.37-97.35-35.15-15.08-9.57-26.12-23.77-29.63-41.5-3.63-18.32.49-37.84,9.09-54.22,19.17-36.53,57.19-55.77,91.48-75.43,15.25-8.75,31.42-17.86,43-31.39a51.64,51.64,0,0,0,11.34-45.48c-3.9-18.06-15.17-33.16-24-49a193.4,193.4,0,0,1-19.24-50.8,202.08,202.08,0,0,1-4.39-29.66c-.05-.64-1.05-.64-1,0Z" transform="translate(-102.66 16)"/><path class="cls-24" d="M292.57-5.85a193.45,193.45,0,0,0,11.11,53.38c6.13,16.85,15.18,31.72,24.49,47,10.57,17.31,19.88,37.39,13.39,58-5.6,17.79-21.68,29.75-36.93,39.07C272,211.48,235,226,208.72,255c-21.75,24-35.21,60.18-21.4,91.49,13.46,30.51,48,40.81,77.5,48.88,17.84,4.88,36.07,9.71,52.08,19.26a89.19,89.19,0,0,1,34.4,37.83c17,35.11,7.79,75-15.92,104.61-11.73,14.65-26.18,26.89-41.23,38-14,10.35-29.7,19.33-40.14,33.63-10.15,13.89-13.73,30.76-7.54,47.09S265,705.42,274.26,720c18.31,28.85,30.48,60.76,31.27,95.2a198.91,198.91,0,0,1-1.32,27c-.07.64.93.64,1,0C309,809,304.15,776.44,290,746.22c-7.33-15.6-16.63-30.13-26.65-44.13-11.14-15.57-22.72-32.79-18-52.91,4.66-19.73,20.42-32.84,36.24-43.95,14.74-10.34,29.28-21,42.09-33.75,24.75-24.58,42.19-58.27,36.56-94-5.1-32.33-27.06-58.12-56.8-70.81-31.53-13.45-68.88-15.15-96.53-37-30.74-24.31-29.12-67.3-9.56-98.22,21.51-34,58.91-51.53,92.83-70.41,15.16-8.44,31.22-17.37,42.52-30.87,11.05-13.21,14.34-29.9,10.11-46.52-4.61-18.14-16.58-33.06-25.62-49.09a186,186,0,0,1-19.41-50.79,194.86,194.86,0,0,1-4.21-29.63c-.05-.63-1.05-.64-1,0Z" transform="translate(-102.66 16)"/><path class="cls-25" d="M292.62-6.1a187.12,187.12,0,0,0,10.92,53.33c6.18,16.91,15.28,31.8,25,46.86,10.86,16.83,21.11,36.2,16.16,56.87-4.34,18.18-19.69,30.64-34.88,40-33.24,20.52-71.18,34-99.2,62.18-23.22,23.38-38.76,59.19-26.93,91.88,11.2,31,43.88,43.1,73,51.35,18,5.12,36.49,9.63,53.09,18.56a90.35,90.35,0,0,1,36.84,36.69c18.07,33.43,11.89,72.75-9.85,102.93-11,15.27-25.08,28-39.84,39.6-13.95,10.91-30,20.21-40.72,34.62C246,642.38,241.89,659,247.44,675.37s17.71,29.85,26.73,44.33c18.08,29,30.17,61,31.16,95.47a203.69,203.69,0,0,1-1.12,26.94c-.07.64.93.64,1,0,3.47-33.14-1.47-65.72-15.5-96-7.24-15.64-16.44-30.18-26.25-44.31-10.9-15.68-21.47-33-16.2-52.85,5.13-19.36,20.67-32.13,36.16-43.42,14.58-10.63,28.91-21.78,41.32-34.95,23.61-25.08,39.15-59.08,32-94a93.39,93.39,0,0,0-19.35-40.37c-10.72-13-24.79-22-40.33-28.23-31.73-12.75-69.95-15-96.17-39.09-28.83-26.43-23.39-70.12-2.55-99.64,23.59-33.44,62.29-49.85,97-68.83,15-8.18,30.85-17.13,41.41-30.94,10.33-13.51,12.37-30.39,7.52-46.5-5.42-18-17.9-32.64-27.12-48.71a179.65,179.65,0,0,1-19.54-50.79,189,189,0,0,1-4-29.58c0-.64-1-.64-1,0Z" transform="translate(-102.66 16)"/><path class="cls-26" d="M292.68-6.35a181.4,181.4,0,0,0,10.71,53.28c6.14,16.74,15.12,31.56,25.08,46.25,11.25,16.57,22.55,35.27,19.15,56.21-3,18.53-17.48,31.46-32.57,41.06-33.16,21.11-71.44,33.23-101.07,59.92-24.54,22.09-42.13,55.69-34.61,89.39,7.34,32.88,38.09,48.13,67.64,57.15,17.79,5.43,36.1,9.58,53.06,17.42,16.46,7.61,30.46,19.06,40.26,34.4,20.4,31.94,17.7,71.49-2.34,103-10.16,15.95-23.86,29.37-38.34,41.4-13.88,11.53-30.19,21.23-41.25,35.76-9.82,12.9-14.66,28.85-10.31,44.79,4.55,16.63,16.47,30.29,25.35,44.71,18.13,29.43,30.43,61.77,31.68,96.59a207.12,207.12,0,0,1-.91,27.17c-.06.64.94.64,1,0,3.21-33.51-2-66.38-16.13-97-7.29-15.79-16.57-30.36-26.22-44.78-10.65-15.93-19.54-33.45-13.26-52.94,6.08-18.83,21.55-30.94,36.67-42.45,14.44-11,28.51-22.71,40.38-36.5,22.47-26.07,35.45-61,25.82-95.14a94.14,94.14,0,0,0-22.56-39.45c-11.81-12.28-26.86-20.15-42.75-25.84-31.49-11.28-70.18-15.1-93.45-41.82-25.94-29.78-15-74.17,8.18-101.91,25.91-31,64.45-45.88,99.08-64.58,14.36-7.75,29.35-16.53,39.1-30,10.35-14.29,11.23-32.09,5.31-48.37-6.34-17.42-19-31.54-28.2-47.38A174.38,174.38,0,0,1,297.54,23.2a183.75,183.75,0,0,1-3.86-29.55c0-.64-1-.65-1,0Z" transform="translate(-102.66 16)"/><path class="cls-27" d="M292.74-6.61a176.18,176.18,0,0,0,10.5,53.25c6.16,16.76,15.17,31.65,25.45,46.17,11.29,16,23,33.38,21.68,53.86-1.22,19.11-14.6,33-29.78,43-16.08,10.66-34.07,18.36-51.34,26.86S235.06,234.14,219.92,246c-27,21.15-47.94,53.51-43.82,89.1a63.52,63.52,0,0,0,20.39,40c11.16,10.12,25.15,16.55,39.23,21.49,34.29,12,72.36,17.16,96.37,47.41,23.55,29.69,25.4,69.5,7.9,102.64-8.77,16.6-21.59,30.7-35.43,43.21S274.14,612.58,262.14,627c-10.41,12.54-16.6,28.6-13.18,44.93,3.6,17.26,15.6,31.42,24.49,46.19,17.81,29.53,30,61.86,31.46,96.57a212.53,212.53,0,0,1-.7,27.41c-.06.64.94.64,1,0a192.5,192.5,0,0,0-16.76-98c-7.37-16-16.85-30.69-26.28-45.55-10.66-16.79-17.48-35-9.37-54.42,7.47-17.9,23-29.14,37.59-40.92,14.18-11.44,27.85-23.78,39-38.3,21.19-27.67,30.56-63.86,17.51-97.15a94.3,94.3,0,0,0-26.45-37.29c-13.07-11.1-29.09-17.67-45.26-22.85-31.29-10-70.8-16.39-89.41-46.94-20.48-33.61-4.25-76.21,21.25-101.92,28.15-28.38,66.52-41.71,100.95-60.4,13.86-7.52,28.21-16.67,36.66-30.4,9.15-14.86,8.27-32.76,1.54-48.4C338.87,102.65,326,88.9,316.79,73.11a169.67,169.67,0,0,1-19.36-50.2,177.68,177.68,0,0,1-3.69-29.52c0-.64-1-.64-1,0Z" transform="translate(-102.66 16)"/><path class="cls-28" d="M292.8-6.86C294.08,29.05,306.52,62,327.63,90.8c11.55,15.79,24.29,32.3,25.06,52.72.76,20.18-11.86,35.41-27.71,46.2s-34.2,18.43-51.64,26.63c-18.1,8.51-36.07,17.51-52.18,29.47-27,20.07-48.44,50.11-47.59,85,.38,15.91,6,31.32,17,43,10.52,11.24,24.57,18.46,38.79,23.86,33.52,12.75,71.61,17,96.7,45.33a93.28,93.28,0,0,1,21.78,43.87c3.81,19.85.27,40.43-8.33,58.59-8,16.93-20.37,31.44-33.83,44.28s-29.34,23.13-41.25,37.28c-10.39,12.34-17,28.17-14.18,44.45,3,17.29,14.54,31.56,23.23,46.29C291,747.55,303,780,304.7,814.71a219.77,219.77,0,0,1-.49,27.4c0,.64,1,.64,1,0a199,199,0,0,0-17-98.17c-7.25-16.05-16.63-30.7-25.73-45.72-4.83-8-9.22-16.37-11.06-25.57a47.91,47.91,0,0,1,4-29.87c8-17.1,23.21-28.08,37.18-39.95,13.65-11.61,26.71-24.18,37.11-38.85,19.84-28,27.15-63.87,13.26-96.06a94.6,94.6,0,0,0-28.53-37.14c-14.05-10.93-31-17.09-47.86-22.3-31.27-9.66-70.24-18-85.77-50.59-16.77-35.17,1.5-75.94,28-100.56,29.94-27.81,69.45-40.15,104.65-59.42,13.76-7.53,27.93-17.26,35.28-31.59,7.91-15.42,5.51-33.27-2-48.35-8.23-16.61-21.35-30.19-30.63-46.16a165.87,165.87,0,0,1-18.91-49.62,172.93,172.93,0,0,1-3.42-29c0-.64-1-.65-1,0Z" transform="translate(-102.66 16)"/><path class="cls-29" d="M292.85-7.12c1,35.46,13.1,68.64,34.34,96.92,11.4,15.18,24.32,30.39,27.23,49.81,3.07,20.5-7.58,37.34-23.6,49.07-15.23,11.15-33.16,18.48-50.29,26.18-18.12,8.16-36.29,16.41-52.93,27.35-28.52,18.75-52.44,46.46-55.76,81.63-1.51,15.94,1.77,32.43,11,45.67,8.91,12.74,22.33,21.35,36.33,27.56,32.38,14.38,70.62,17.3,97.58,42.29a92.62,92.62,0,0,1,24.11,99.54c-6.6,18.41-18.37,34.31-31.82,48.29-12.79,13.3-28.14,24-40.5,37.68-11.15,12.34-19.22,28.46-17.14,45.47,2.11,17.18,12.89,31.4,21.34,45.95,17.67,30.43,29.89,63.48,31.74,98.86a224.53,224.53,0,0,1-.3,27c0,.64,1,.64,1,0a206.19,206.19,0,0,0-17.31-98.64c-7.17-16.11-16.53-30.78-25.27-46-4.92-8.6-9.2-17.81-10.28-27.77s1.45-20.09,6.18-29c8.8-16.6,24.34-27.53,37.93-39.89,13.11-11.92,25.48-24.94,34.89-40,18.5-29.66,22.06-66.51,5.1-97.65a94.61,94.61,0,0,0-32.13-34.6c-15.29-9.72-32.83-15.05-50-20.28-32.13-9.75-69.66-22.1-79.46-58.42-9.92-36.77,11.07-73.63,38.94-96.29,31.77-25.82,71.56-36.53,106.49-56.8,13.08-7.59,26.09-17.5,32.16-31.81,6.57-15.49,3.23-32.81-4.54-47.19-9-16.7-22.65-30.34-32.18-46.74A162.29,162.29,0,0,1,297,21.21a169.53,169.53,0,0,1-3.13-28.33c0-.64-1-.64-1,0Z" transform="translate(-102.66 16)"/><path class="cls-30" d="M292.91-7.37a164,164,0,0,0,34.55,97.19c11.56,15,24.86,29.7,28.74,48.86,3.92,19.37-4.36,36.52-19.31,48.6-14.68,11.86-32.73,19.16-49.88,26.63-18.49,8.05-37.18,15.87-54.51,26.25-29.89,17.9-56.14,44.49-62,80.12C168,335.74,169.66,352,177.08,366c7.17,13.48,19.32,23.22,32.66,30.21,31.6,16.54,69.93,18.64,98.52,41.19s41.88,59.93,32.95,95.26c-4.82,19-15.23,35.86-28,50.62C300.91,597.52,286,609,273,622.54c-11.66,12.15-21.09,28-20.3,45.4s11.06,32.11,19.43,46.76c17.54,30.72,29.88,63.95,32.11,99.48a232.38,232.38,0,0,1,0,27.93c0,.64,1,.64,1,0A214.55,214.55,0,0,0,287,741.7c-7.29-16.4-17.08-31.25-25.28-47.15-4.38-8.5-7.77-17.65-8.06-27.31-.31-10.06,3-19.86,8-28.46,9.62-16.41,25.68-27.67,39-40.8,12.87-12.67,24.82-26.69,33.06-42.86C349.48,524.35,348.7,488,329.5,459a96.82,96.82,0,0,0-35.36-32c-15.65-8.34-32.84-13.11-49.66-18.4-16.08-5.05-32.32-10.74-46.16-20.61-14.67-10.46-24.52-25.63-27.17-43.56-5.63-38.2,18.18-72.87,47.86-94.27,16.21-11.68,34.22-20.39,52.44-28.43s36.95-15.11,53.95-25.35c12.64-7.6,24.84-17.67,30.1-31.9,6-16.27,1.35-34-7.32-48.31-9.55-15.82-22.83-29-32.24-44.92A158.7,158.7,0,0,1,297,21.64a166.4,166.4,0,0,1-3.1-29,.5.5,0,0,0-1,0Z" transform="translate(-102.66 16)"/><path class="cls-31" d="M293-7.63a159.53,159.53,0,0,0,33.41,95.8c11.73,15.11,25.81,29.29,31.1,48.21,5.42,19.41-1.15,37.72-16.17,50.66-14.75,12.71-33.62,20.09-51.35,27.57-18,7.59-36.22,14.84-53.35,24.31-30.24,16.71-57.75,41.4-66.55,76-4,15.72-3.89,32.72,2.3,47.87,5.85,14.29,16.92,25.18,30,33,30.33,18.15,67.6,20.35,97.15,40.09,30.84,20.6,47.49,58.51,40.24,95.06-3.79,19.15-13.35,36.33-25.48,51.43-11.52,14.34-25.45,26-38.19,39.19-11.65,12-21.55,27.32-21.87,44.6-.33,17.85,9.65,33.11,18,48.1,17.22,31,29.37,64.34,31.8,99.89a238.76,238.76,0,0,1,.19,27.93c0,.65,1,.64,1,0a223.65,223.65,0,0,0-18.35-100.64c-7.12-16.38-16.8-31.28-24.53-47.3-4.32-9-7.42-18.65-7.07-28.7.33-9.69,3.88-19.06,8.9-27.27C274.08,622,290,610.43,303,596.81c12.29-12.93,23.54-27.29,30.82-43.69,13.88-31.28,10.76-67-9.49-94.72a100.48,100.48,0,0,0-38.17-31.19c-16.38-7.86-34-12.44-51.18-18.22-15.95-5.37-32.08-12-44.85-23.26a64.71,64.71,0,0,1-21.72-46.56c-1.49-38.92,24.41-71.21,55.51-91.46,16.89-11,35.39-19.14,53.92-26.93,17.36-7.29,35.37-14,51.48-23.88,12.8-7.84,24.86-18.44,29.33-33.26,5.14-17-.86-34.66-10.32-48.91-10.06-15.15-23.14-28-32.47-43.7a155.52,155.52,0,0,1-18.91-49.67,163,163,0,0,1-2.94-29,.5.5,0,0,0-1,0Z" transform="translate(-102.66 16)"/><path class="cls-32" d="M293-7.88a156,156,0,0,0,32.24,94.44c11.7,15.1,26.34,28.73,33,47.06,6.87,18.84,2.86,38.21-11.61,52.17-13.82,13.33-32.46,20.78-49.91,28-18.17,7.51-36.64,14.4-54.23,23.24-31.14,15.64-60.64,38.7-72.32,72.76-5.18,15.09-6.74,31.75-2.67,47.29,3.87,14.8,12.87,27.16,25.07,36.24,28.42,21.14,65.6,23.81,96.19,40.65,31.66,17.42,52.45,52,50,88.45-1.32,20-9.33,38.7-20.7,55-10.8,15.5-24.33,28.34-37.54,41.71-11.86,12-22.46,26.4-24.49,43.63-2.15,18.28,7.15,34.42,15.55,49.85,17.27,31.72,29.55,65.75,32.16,102a249.6,249.6,0,0,1,.38,27.49c0,.65,1,.64,1,0a234.1,234.1,0,0,0-18.92-101.88c-7-16.2-16.55-31.05-23.62-47.15-4.37-9.93-7-20.76-5.37-31.64,1.43-9.57,5.64-18.62,11.14-26.51,10.87-15.61,26.45-27.53,38.82-41.92,11.28-13.13,21.28-27.74,27.07-44.16a94.52,94.52,0,0,0-18.1-94.18C292.39,427.36,257,421,224.68,408.82c-15.64-5.9-31.33-13.73-42.59-26.42-12.14-13.67-17-32-15.61-50,3-38.4,30.44-67.84,62.17-86.65,17.89-10.6,37.23-18.36,56.46-26.12,17.21-6.95,35.13-13.56,50.66-23.9,12.47-8.3,23.35-19.75,26.23-34.93,3.24-17.13-3.95-33.89-13.82-47.53-10.84-15-24.05-27.91-33.4-44A153.77,153.77,0,0,1,296.6,20,161,161,0,0,1,294-7.88a.5.5,0,0,0-1,0Z" transform="translate(-102.66 16)"/><path class="cls-33" d="M293.08-8.13c.05,33.76,10.84,67,31.56,93.75,11.53,14.89,26.19,27.87,34.08,45.28,8.45,18.65,6.6,39.38-7.78,54.48-12.61,13.25-30.23,20.67-46.84,27.48-18.36,7.53-37.1,14.15-55.16,22.41-32.4,14.84-64.28,36.68-78.47,70.7-12.18,29.2-9.64,64.28,15.23,86,26.32,23,63.2,26.66,93.81,41.43,32.86,15.86,56.69,48.26,57.09,85.43.44,40.52-26.07,71.5-52.67,98.93-11.94,12.3-23,26.38-25.89,43.77-2.94,17.83,5,34,13.11,49.31,17.09,32.41,29.54,66.72,32.43,103.47a260,260,0,0,1,.63,27.78.5.5,0,0,0,1,0A245.61,245.61,0,0,0,285.76,739c-3.37-8-7.09-15.79-11.05-23.49-4.45-8.64-9.37-17.11-12.64-26.3-3.55-10-4.82-20.58-2.35-31a70.57,70.57,0,0,1,12.58-25.65c11.11-14.82,25.6-26.83,37.11-41.39,11-13.88,20.26-29.35,24.86-46.56,8.76-32.84-1-67.25-24.78-91.35-25.68-26.06-62.42-30.93-94.66-44.87-15.49-6.7-30.63-16-40.1-30.32-10-15.15-12.38-34-9.27-51.64,6.79-38.4,36.64-65.69,69.68-83.25,18.16-9.66,37.47-16.81,56.58-24.3,16.88-6.62,34.46-13.11,49.32-23.72,12-8.54,21.66-20.29,23.62-35.26,2.32-17.69-6-34.28-16.56-47.85-11.22-14.42-24.19-27.14-33.46-43a151,151,0,0,1-18.13-49.29,157.74,157.74,0,0,1-2.43-27.86.5.5,0,0,0-1,0Z" transform="translate(-102.66 16)"/><path class="cls-34" d="M293.14-8.39c-.17,33.8,10.6,67.07,31.41,93.81,11.69,15,26.8,27.76,35.38,45,9,18.19,8.67,39.21-5.17,54.87-12.28,13.89-30.23,21.49-47,28.24-18.09,7.27-36.57,13.55-54.5,21.23-32.67,14-65.46,34.28-81.9,67.1-14.1,28.14-15.07,64.52,7.82,88.41,23.9,24.94,60.76,29.83,91.15,43,16.92,7.33,32,17.73,43.43,32.33a94.62,94.62,0,0,1,20.13,49.49c3.73,40.79-21.15,73.89-47.46,102.06-11.84,12.66-23.15,26.58-26.52,44.07s3.77,33.85,11.54,49.2c16.59,32.78,28.84,67.08,31.94,103.9a274.16,274.16,0,0,1,.86,27.79.5.5,0,0,0,1,0,258.63,258.63,0,0,0-19.8-104c-3.32-8-7-15.92-10.87-23.69-4.2-8.4-8.7-16.71-11.57-25.69-6.46-20.24-.9-39.66,11.55-56.29,11.11-14.84,25.13-27.22,36.12-42.23,10.5-14.34,19-30.29,22.6-47.82,6.93-33.73-5.8-68.14-31.37-90.82-27.1-24-64.27-28-95.8-43.57-15.23-7.54-29.28-18.16-37-33.66-8.09-16.22-8.64-35.17-4.18-52.52,9.6-37.33,40.52-62.74,73.73-79.22,18.32-9.09,37.65-15.88,56.73-23.15,17.07-6.5,34.88-13,49.66-24,12.05-9,21.21-21.44,22.21-36.83,1.12-17.12-7.29-32.78-17.69-45.73-11.84-14.74-25.42-27.67-35-44.12a148.94,148.94,0,0,1-18.07-49.33,155.62,155.62,0,0,1-2.28-27.85.5.5,0,0,0-1,0Z" transform="translate(-102.66 16)"/><path class="cls-35" d="M293.2-8.64c-.38,33.83,10.35,67.14,31.24,93.85,11.59,14.82,26.63,27.11,36,43.62,9.59,17,11.67,37.66-.19,54.08-10.46,14.5-27.74,22.78-43.83,29.33-18.79,7.64-38.11,13.91-56.95,21.42C226,247,192,265.6,172.9,297.45c-16.18,27-20.53,64.21-.18,90.35C193.27,414.18,229,421,258.55,432.39c17.85,6.88,34.42,16,47.48,30.24A98.06,98.06,0,0,1,329.69,507c4.63,20.53,1.62,41.93-7.08,61-8,17.5-20,32.85-32.66,47.16-11.64,13.11-23.37,26.53-27.78,44s1.44,34,8.94,49.62c16.11,33.61,28.59,67.95,32,105.32.85,9.35,1.17,18.72,1.11,28.1a.5.5,0,0,0,1,0,274.18,274.18,0,0,0-20.3-105.44c-6.75-16.62-16.79-32.45-21.35-49.85-5.62-21.39,2.41-41.22,15.74-57.9,11.3-14.13,24-26.84,34-42.09,9.82-15.08,17.05-31.77,19.07-49.78,3.76-33.68-12.12-66.68-38.69-87.14-28.59-22-66.21-25.26-96.93-43.19-15.17-8.86-27.64-21.47-33.21-38.43-5.51-16.75-4.13-35.11,1.55-51.61,12.72-37,46.15-60.74,80.5-76.1,19-8.5,38.82-15,58.28-22.37,16-6,32.4-12.31,45.88-23.07,12.11-9.67,20.31-23.25,19.87-39.11-.48-16.92-9.55-31.67-20.23-44.17-12.16-14.23-25.49-27-35-43.31a147,147,0,0,1-18-49.36A153.52,153.52,0,0,1,294.2-8.64a.5.5,0,0,0-1,0Z" transform="translate(-102.66 16)"/><path class="cls-36" d="M293.26-8.9a147.92,147.92,0,0,0,30.65,93.39c11.59,14.92,26.79,27,36.94,43,10.44,16.52,14.22,37.59,3.16,54.81-9.26,14.4-25.58,23.11-41,29.5-18.91,7.85-38.5,13.94-57.67,21.08-33.95,12.64-68.31,29.53-89.95,59.74-18.21,25.42-25.81,61.82-9.79,90.19,16.77,29.68,53.14,38.72,82.83,49.55,18.08,6.59,35.58,14.6,49.73,27.95a101.06,101.06,0,0,1,27.16,42.48,94.33,94.33,0,0,1-2,61.46c-6.91,18.46-18.5,34.77-31,49.81-11.08,13.3-22.74,26.29-27.84,43.24-5.28,17.57-.46,34.41,6.85,50.59,7.74,17.13,15.28,34.19,20.76,52.2A275.6,275.6,0,0,1,302.86,814c.9,9.34,1.31,18.72,1.35,28.11a.5.5,0,0,0,1,0,291.52,291.52,0,0,0-20.34-105.8c-6.66-16.94-16.75-33.27-20.49-51.19-4.47-21.4,4.69-40.87,17.78-57.3,11.19-14,23.15-27.17,32.29-42.73,9.36-15.93,15.64-33.57,16.17-52.17.95-33.52-17.4-65.2-44.83-83.82C256,428.88,218,425.8,188.36,405.38c-14.94-10.28-25.58-24.93-29.09-42.89-3.44-17.63-.14-36.22,7.25-52.45,16.34-35.85,51.85-57.27,87-71.48,18.76-7.58,38.06-13.66,57-20.76,15.36-5.77,31.07-12.08,43.66-22.91,11.86-10.22,19-24.48,17.45-40.36-1.62-17.19-11.6-31.54-22.87-44-12.57-13.89-25.7-26.74-35.15-43.11a145.36,145.36,0,0,1-17.45-48.87A152.18,152.18,0,0,1,294.26-8.9a.5.5,0,0,0-1,0Z" transform="translate(-102.66 16)"/><path class="cls-37" d="M293.31-9.15a146.52,146.52,0,0,0,30.5,93.51c11.5,14.76,26.51,26.5,37.28,41.86,11.09,15.79,16.62,36.7,7,54.59C360,196,343.79,205.34,328.43,212c-18.81,8.08-38.57,13.89-57.86,20.67-34.88,12.27-70.53,28.14-94,57.93-19.17,24.35-28.75,59.35-16,88.8,13.88,32,49.77,43,79.89,53.85,18.11,6.52,36.14,13.84,51,26.44a104.25,104.25,0,0,1,29.78,41.25,93.48,93.48,0,0,1,2.15,60.63C317.91,579.7,307.6,596,296.15,611c-10.71,14-22.94,27-28.95,44-6.36,17.93-2.63,35.29,4.58,52.32s14.55,33.91,19.88,51.7a295.86,295.86,0,0,1,10.93,54.66c1,9.45,1.47,18.94,1.62,28.44a.5.5,0,0,0,1,0,312.68,312.68,0,0,0-21-108c-6.45-16.75-16.15-33.07-18.83-51-3.18-21.23,6.87-40.16,19.58-56.36,11.26-14.36,22.78-28.35,31.15-44.69,8.26-16.11,13.13-33.83,12.33-52-1.46-33.68-22.14-64.47-50.78-81.5-30.76-18.29-69.18-21.82-97.22-45-29.46-24.33-30-65.67-12.85-97.49,18.64-34.55,55-54.34,90.4-67.78C277,231,296.58,225.14,315.72,218c15.23-5.66,30.82-12.18,42.86-23.43,11.28-10.55,17.23-25,15.11-40.51-2.4-17.59-13.33-31.87-25.21-44.38-12.78-13.46-25.67-26.26-35-42.48A143.67,143.67,0,0,1,296.1,18.3a151,151,0,0,1-1.79-27.45c0-.64-1-.64-1,0Z" transform="translate(-102.66 16)"/><path class="cls-38" d="M293.37-9.4a145.12,145.12,0,0,0,29.88,93.05c11.77,15.21,27.31,27.06,38.8,42.49,11.36,15.24,17.92,35.78,9.53,53.94-7,15.19-22.08,24.77-36.77,31.51-18.46,8.47-38.29,14-57.52,20.38C242,243.7,205.59,258,180,286.2c-21.32,23.51-33.84,58.05-23.85,89.34,10.33,32.38,42.51,46.14,71.92,56.84,18.23,6.64,37,13,53,24.22a108.34,108.34,0,0,1,34.4,39.68,93.19,93.19,0,0,1,8.37,58.4c-3.52,19.25-13,36.87-24.06,52.82-10.4,15-23.27,28.58-30,45.84-7,17.93-4.52,35.48,2.37,53s14.11,34.42,19.33,52.4a319.52,319.52,0,0,1,10.89,54.89c1,9.46,1.6,19,1.86,28.46,0,.64,1,.65,1,0a336.74,336.74,0,0,0-20.75-107.74c-6.57-17.8-16.76-35.43-18.09-54.67-1.45-20.83,9.62-38.94,21.78-54.85,22.1-28.92,42.54-61.24,37.42-99.33-4.6-34.21-28.3-63.07-58.56-78.47-31.27-15.9-70.48-20.7-95.47-47.25-25.35-27-21-68.71-2.26-98,21.41-33.55,59-51.64,95.34-64.42,18.93-6.67,38.21-12.32,57-19.32,15-5.58,30.4-12.5,41.65-24.24a45.81,45.81,0,0,0,12.12-41.33c-3.47-17.16-14.7-30.75-26.66-42.91C335.63,96.21,322.69,83.34,313.27,67A142.14,142.14,0,0,1,296,18,148.24,148.24,0,0,1,294.37-9.4a.5.5,0,0,0-1,0Z" transform="translate(-102.66 16)"/><path class="cls-39" d="M293.43-9.66A143.87,143.87,0,0,0,323.49,84c11.27,14.42,25.86,25.68,37.55,39.71,12.42,14.9,21.12,35.24,14.22,54.55-5.8,16.26-20.91,26.62-35.86,33.75-18.1,8.63-37.84,13.93-56.9,20-36,11.42-73.17,24.68-100.39,52-22.47,22.54-36.7,55.72-29.7,87.75,7.48,34.21,38.45,50.29,68.58,61.67,17.86,6.74,36.33,12.67,52.59,22.91a111.4,111.4,0,0,1,37.2,38.63A94.09,94.09,0,0,1,322.89,551c-2,19.57-10.41,37.8-20.78,54.28-9.89,15.72-22.84,29.74-30,47.07s-6.06,34.6.11,52.08c6.28,17.76,13.64,35,18.8,53.13a346.73,346.73,0,0,1,11,55.75c1.09,9.57,1.77,19.18,2.15,28.81,0,.64,1,.65,1,0A366.57,366.57,0,0,0,283.83,732c-6.33-17.62-15.82-35.2-16-54.33-.23-20.53,11.25-38.06,22.88-54,21.47-29.43,39.6-63.27,31.79-100.86-7.08-34.15-32.48-61-63.43-75.49s-70.23-20.63-92.88-48.77c-23.32-29-16-71.5,4.59-99.77,23.68-32.59,62-49.34,99.07-61.64,19.23-6.38,38.78-11.87,57.74-19,14.35-5.43,29.08-12.6,39.44-24.25a45.7,45.7,0,0,0,10.14-42.17c-4.34-17.32-16.33-30.66-28.76-42.84-13.24-13-26-25.85-35.29-42a140.84,140.84,0,0,1-17.14-49,147.29,147.29,0,0,1-1.51-27.44c0-.64-1-.64-1,0Z" transform="translate(-102.66 16)"/><path class="cls-40" d="M293.48-9.91a142.67,142.67,0,0,0,29.1,92.78c11.28,14.67,26,26,38.25,39.69,12.81,14.33,22.84,33.76,17.89,53.44-4.28,17-18.7,28.27-33.63,35.85-18,9.14-38.07,14.38-57.33,20.25-36.14,11-73.52,23.08-102.21,48.78-24.18,21.65-40.57,53.85-36.31,86.92a68.32,68.32,0,0,0,21.09,41.47C181.84,420,196.24,427.1,210.7,433c18,7.33,36.67,13,53.74,22.4a115.41,115.41,0,0,1,40.47,36.88,95.78,95.78,0,0,1,16.53,54.87c-.41,20.25-7.85,39.37-17.82,56.76-9.37,16.34-22.15,30.82-29.51,48.28-7.21,17.11-6.81,34.2-1.18,51.69,5.69,17.67,12.79,34.73,17.74,52.66a382,382,0,0,1,11.05,56c1.19,9.83,2,19.71,2.49,29.6,0,.64,1,.65,1,0A402,402,0,0,0,284,731.52c-6.22-18.09-15.46-36.29-14.53-55.9.95-20.18,12.57-37.08,23.61-53.15,10.4-15.15,19.85-31.29,25.17-49a95.13,95.13,0,0,0,.22-55.17c-10.23-33.53-37.07-57.43-68.49-71s-72.27-21.7-91-53.7c-18.59-31.73-7.44-72.75,15-99.34,25.7-30.42,63.9-45.48,100.89-57.11,19.51-6.13,39.42-11.4,58.47-18.92,14.35-5.67,29.08-13.41,38.6-25.94,9.73-12.78,11.24-29.12,6-44.08-5.86-16.66-18.41-29.12-30.94-41-13.06-12.39-25.18-25.13-34.17-40.87a139.86,139.86,0,0,1-16.84-48.44,146.69,146.69,0,0,1-1.43-27.78c0-.65-1-.64-1,0Z" transform="translate(-102.66 16)"/><path class="cls-41" d="M293.54-10.17A141.67,141.67,0,0,0,322.4,82.7c11.09,14.45,25.46,25.54,38,38.64,13.43,14.07,24.88,33.08,21.26,53.34-3.14,17.58-17,29.63-32.12,37.6-17.38,9.2-36.9,14.26-55.68,19.79C257.05,242.89,219,253.93,188.7,278.53c-25.44,20.66-43.64,51.6-42.11,85.16.71,15.6,6.13,30.8,16.39,42.68,10.71,12.4,25.39,20.62,40.21,27.13,17.14,7.54,35.11,13.07,51.94,21.34a122.86,122.86,0,0,1,42.51,33.7c12.1,15.27,20.17,33.79,21.71,53.31,1.58,20.2-4,39.78-12.94,57.75-8.4,16.92-20.54,31.69-28.63,48.74a73.79,73.79,0,0,0-4.69,52.8c2.52,9.29,6.1,18.26,9.14,27.38s5.79,18.19,8.24,27.42a425.46,425.46,0,0,1,11,56.95c1.2,9.71,2.07,19.46,2.69,29.22,0,.64,1,.65,1,0A447.57,447.57,0,0,0,283.68,729.7c-6-18.16-14.51-36.55-12.44-56.15,2.14-20.26,14.17-36.78,24.71-53.48,10.13-16.06,19-33.4,22.79-52.15a94.19,94.19,0,0,0-5.26-54.49A111.09,111.09,0,0,0,286.3,474.8c-13.13-12.24-28.75-20.55-45.25-27.32-31.68-13-71.77-23.12-87.27-57.3-15.31-33.76-1.28-73.77,23-99.32,27.65-29.06,66.57-42.74,104.08-53.93,19.51-5.82,39.52-10.85,58.34-18.71,13.34-5.57,26.82-13.21,35.52-25.1,9.68-13.23,10.58-30,4.75-45.05-6.51-16.76-19.6-29-32.51-41-13.44-12.44-25.7-25.49-34.76-41.54a138.62,138.62,0,0,1-16.56-49.22,146.5,146.5,0,0,1-1.12-26.48c0-.64-1-.64-1,0Z" transform="translate(-102.66 16)"/><path class="cls-42" d="M293.6-10.42a140.7,140.7,0,0,0,28.6,93c11.28,14.7,25.91,25.88,38.88,38.94,13.3,13.4,24.88,31,23.35,50.72-3.11,40-54.34,51.33-85.31,60.18-37.34,10.66-76.07,20.83-107.67,44.5-26.35,19.73-45.94,49.17-47,82.83-.5,15.88,3.61,32,13,44.93s22.94,21.71,37,28.59c17,8.3,35.1,13.95,52.29,21.79s32.56,18.27,45,32.43c12.28,13.95,21.28,30.88,24.62,49.24,3.65,20.12-.13,40.29-8,59-7.72,18.35-19.83,34.12-28.41,52-8.07,16.77-10.45,34-6.22,52.2,2.11,9.08,5.34,17.84,8.18,26.7q4.38,13.71,8,27.64a481.16,481.16,0,0,1,11.16,57.94c1.3,10,2.29,20,3,30,.05.64,1.05.64,1,0a504.31,504.31,0,0,0-21.32-113c-6-19.19-14.07-38.48-10.42-59,3.52-19.86,15.71-36,25.45-53.16,9.05-15.91,16.63-33.11,19.12-51.38a94.7,94.7,0,0,0-8.47-53.27A115.25,115.25,0,0,0,279,473.58c-14-11.71-30.5-19.33-47.37-26-32.69-13-71.85-25.9-83.11-63.36-10.52-35.05,6-72.6,31.63-96.59,29.23-27.36,68.34-39.76,106-50.5,19-5.42,38.59-10.2,56.81-18,13.57-5.8,27.29-13.86,35.51-26.51,8.92-13.73,8.67-30.52,2.3-45.23-7.14-16.49-20.64-28.48-33.69-40.3C333.78,95,321.69,82.15,312.68,66.48a137.8,137.8,0,0,1-16.92-49.13,144.86,144.86,0,0,1-1.16-27.77c0-.64-1-.64-1,0Z" transform="translate(-102.66 16)"/><path class="cls-43" d="M293.66-10.68a139.84,139.84,0,0,0,28.34,93c11.39,14.86,26.15,26.08,39.51,39,13.56,13.12,25.59,30,25.32,49.71-.56,41.07-52,53.21-83.19,61.89-37.83,10.52-77,20-109.76,42.72-27.29,19-48.21,47.49-51.21,81.33-1.4,15.81,1.55,32.16,9.86,45.81s21.62,23.53,35.63,31c16.45,8.73,34.23,14.52,51.25,21.95,17.44,7.62,33.51,17.4,46.79,31.18,12.89,13.38,22.85,29.76,27.37,47.88,4.91,19.72,2.54,39.93-4.31,58.88-6.93,19.16-18.63,35.59-27.31,53.86-7.86,16.57-10.74,33.61-7.11,51.68,3.7,18.45,10.61,36.26,15.09,54.55a551.22,551.22,0,0,1,10.77,56.85c1.43,10.47,2.57,21,3.51,31.49.05.64,1.06.64,1,0-3.42-38.45-10.09-76.49-21.06-113.53-5.68-19.21-12.89-38.5-8.82-58.82,3.92-19.61,15.74-35.87,24.83-53.27,8.62-16.5,15.53-34.35,16.88-53.07a95.45,95.45,0,0,0-11.65-52.19,120.23,120.23,0,0,0-32.86-37.84c-14.52-11.11-31.33-18.23-48.2-24.94-33.07-13.16-70.53-28.13-79.17-66.8-8-35.89,10.16-72.37,36.91-95.55,30.61-26.53,70.37-38.05,108.63-48.54,18.86-5.17,38.3-9.79,56.26-17.67,13.65-6,27.4-14.45,35.05-27.69,8.09-14,7-30.53.33-44.84-7.72-16.6-21.83-28.49-35.25-40.4S321.49,82,312.48,66.27a136.92,136.92,0,0,1-17-50.4,144.54,144.54,0,0,1-.86-26.55c0-.64-1-.64-1,0Z" transform="translate(-102.66 16)"/><path class="cls-44" d="M293.71-10.93a139.07,139.07,0,0,0,28.12,93.18c11,14.3,24.94,25.24,38.17,37.3,14.16,12.91,27.32,28.86,29,48.75,3.47,42.06-46.63,55.94-78.1,64.58-38.64,10.62-78.67,19.15-113,40.85-28.39,17.95-51.12,45.3-56.48,79.2-2.41,15.25-1,31.17,5.36,45.33,6.61,14.65,18.46,25.72,32,34,15.24,9.39,32.17,15.5,48.64,22.28,18.47,7.62,36.11,16.45,51,30,13.53,12.34,24.63,27.59,30.89,44.88,7,19.44,6.86,40.14,1.25,59.91-5.54,19.52-16,36.41-24.89,54.43-8,16.27-12.65,33.18-10.19,51.4,1.32,9.74,4.16,19.16,6.84,28.59s5.17,18.92,7.4,28.46c4.47,19.13,8,38.46,10.73,57.91,1.49,10.62,2.75,21.27,3.84,31.94.06.64,1.06.64,1,0-4-39-10.55-77.76-21.15-115.57-5.57-19.86-11.47-39.44-6.15-60.08,4.93-19.17,16.51-35.51,24.69-53.3,7.84-17.07,13.59-35.62,13.12-54.58a98,98,0,0,0-15.84-50.18,126.74,126.74,0,0,0-34.37-35.32c-15.54-10.83-33.32-17.6-50.76-24.68-16.88-6.84-34.14-14.14-48.18-26a70.26,70.26,0,0,1-24.76-45.75c-4.3-36.12,15.29-70.38,42.85-92.32C217,258.57,257.74,248,296.92,237.66c18.73-5,38.09-9.5,55.7-17.75,13.35-6.26,26.56-15.27,33.17-28.91,7.16-14.77,4.59-31.56-3-45.62-8.67-16.09-23.24-27.51-36.74-39.36s-25.4-25-34.25-40.74a136.2,136.2,0,0,1-16.4-50,144.68,144.68,0,0,1-.71-26.24c0-.64-1-.64-1,0Z" transform="translate(-102.66 16)"/><path class="cls-45" d="M293.77-11.18A138.46,138.46,0,0,0,322,82.62c11.07,14.35,25.17,25.29,38.65,37.22,14,12.37,27,27.19,30.1,46.24,6.94,42.09-40.54,58-72.21,66.66-38.83,10.67-79.18,18.2-114.66,38.19-29.85,16.82-55,42.71-63.11,76.8-3.68,15.35-3.73,31.8,1.42,46.82s15.33,27.09,28.14,36.26c30.7,22,69.86,27.85,99.59,51.66,14.19,11.37,26.27,25.59,34.13,42a95.26,95.26,0,0,1,7,60.93c-4.24,20.36-14,38.27-23,56.79-8.28,17.07-13.55,34.64-11.28,53.76,2.25,18.88,8.75,37.29,12.83,55.83,4.24,19.28,7.64,38.74,10.45,58.28,1.53,10.65,2.88,21.32,4.12,32,.07.63,1.07.64,1,0-4.57-39.39-10.9-78.58-21-117-5.37-20.47-9.95-40.25-3.8-61.15,5.51-18.75,16.55-35.22,23.81-53.26,7.35-18.24,11.82-37.89,9.33-57.6-2.18-17.3-9.42-33.59-19.79-47.52a133.92,133.92,0,0,0-37.69-34c-16.73-10.19-35.39-16.6-53.28-24.36-16-6.94-32.14-15.13-44.36-27.89-12.71-13.28-19.15-31-19.3-49.24-.3-37.32,22.44-69.82,52.32-90.27,33.78-23.12,74.16-32.24,113.17-42.33,18.11-4.69,36.76-9.15,53.55-17.6,12.92-6.5,25.27-15.91,30.94-29.65,6.4-15.48,2.52-32.59-5.92-46.47-9.39-15.46-24.14-26.42-37.59-38.1-27.13-23.57-46-54.49-50.27-90.59a142.9,142.9,0,0,1-.59-26.24c0-.65-1-.64-1,0Z" transform="translate(-102.66 16)"/><path class="cls-46" d="M293.83-11.44A137.85,137.85,0,0,0,322.2,83c11.07,14.26,25.11,25.14,38.72,36.81,14.38,12.33,27.9,26.88,31.8,46.06,3.85,19-4.88,36.07-20.1,47.14-14.61,10.62-32.29,15.84-49.5,20.51-39.05,10.6-79.63,17.54-115.83,36.47-30.36,15.87-56.72,40.44-66.94,73.95-4.67,15.32-5.83,31.92-1.86,47.53,4,15.87,13.43,29.22,26.21,39.32,29.1,23,67.61,29.1,97.62,50.74,15.45,11.14,28.91,25.42,38,42.21A95,95,0,0,1,310.75,584c-3.12,20.19-11.71,38.42-20.29,56.74-8,17.14-14,34.72-12.43,53.89s7.79,38,11.65,56.79c4,19.45,7.25,39,10.13,58.66q2.34,16,4.4,32.07c.08.63,1.08.64,1,0-5.17-39.75-11.27-79.37-20.7-118.36-4.89-20.22-8.24-39.67-2.14-60.06,5.65-18.87,16.3-35.75,22.84-54.3,6.44-18.25,9.77-37.74,6.35-57-3-17.13-11.09-33-21.94-46.51a139.86,139.86,0,0,0-40.74-34.12c-17.36-9.69-36.28-16.07-54.26-24.45-15.68-7.3-31.26-16.33-42.25-30-11.28-14-16.07-32.08-15.19-49.91,1.87-37.7,26.16-69.15,57.12-88.8,34.8-22.09,75.53-30.5,114.93-40.44,28.84-7.29,70.76-15.8,82.7-47.61,5.82-15.51,1.6-32.36-6.92-46-9.81-15.7-25.1-26.68-39-38.53C318.5,82.49,299.5,51.19,295.3,14.8a142,142,0,0,1-.47-26.24c0-.64-1-.64-1,0Z" transform="translate(-102.66 16)"/><path class="cls-47" d="M293.89-11.69A137.26,137.26,0,0,0,322,82.83c11,14.16,24.77,25,38.46,36.37,14.72,12.2,28.85,26.21,33.88,45.28,4.89,18.59-2.08,36.35-16.83,48.16-14.33,11.47-32.37,17-49.82,21.68-39.21,10.55-79.94,17-116.78,34.81-31.24,15.15-59.14,38.89-71.06,72.36-11,31-6.39,66.18,19,88.74,27.64,24.56,66.06,31,96.48,51.1,32.72,21.62,57.86,56.8,55.27,97.42-1.35,21.07-9.07,40.68-17.56,59.76-7.68,17.25-14.4,34.81-13.66,54,.76,19.81,6.81,39.34,10.48,58.74,3.77,19.89,6.92,39.88,9.89,59.9,1.54,10.36,3,20.73,4.53,31.09.09.64,1,.37,1-.26-5.9-40.9-12.12-81.63-20.83-122-2.22-10.3-4.13-20.72-4.11-31.3a91.85,91.85,0,0,1,5.43-29.52c6.46-18.91,16.39-36.31,21.63-55.69,4.94-18.27,6.19-37.43,1.05-55.8-4.68-16.76-14.11-31.9-25.88-44.61a151.53,151.53,0,0,0-43.7-32.28c-17.25-8.63-35.54-14.95-52.72-23.74-15.61-8-30.75-18.3-40.23-33.41-9.32-14.86-12.26-32.87-10.2-50.13,4.47-37.6,30.24-67.53,62-86.14,36.13-21.17,77.61-28.8,117.72-38.79,28.7-7.15,70.12-16.5,79.84-49.32,4.77-16.11-.82-33.1-10.17-46.43-10.6-15.12-26.15-25.7-40-37.55C317.82,82,299.19,50.43,295.24,14.55a142.87,142.87,0,0,1-.35-26.24c.05-.64-.95-.64-1,0Z" transform="translate(-102.66 16)"/><path class="cls-48" d="M293.94-11.95a136.7,136.7,0,0,0,27.14,93.76c11,14.47,24.85,25.58,38.91,36.9,15,12,29.61,25.5,35.71,44.32,5.87,18.1.78,36.46-13.38,49.05-13.53,12-31.38,18-48.55,22.67-39.25,10.62-80.06,16.43-117.51,32.92-32.26,14.2-62.16,36.83-76.21,70.1-12.31,29.13-11.54,64.49,10.43,88.87,25.12,27.87,64.59,35.19,95.86,53.63,33.31,19.64,62,52.9,63.25,93.17.65,21.55-5.85,42.42-14,62.12-7.35,17.85-14.91,35.81-14.84,55.46.07,19.84,5.6,39.5,9,58.94,3.54,20.32,6.57,40.72,9.65,61.12,1.57,10.39,3.15,20.78,4.81,31.16.1.64,1.06.37,1-.26-6.52-41-12.42-82-20.15-122.72-1.94-10.23-3.48-20.57-3.22-31s2.73-20.65,6.12-30.49c6.81-19.73,16.34-38.2,20.39-58.86,3.67-18.7,3-37.92-3.89-55.82-6.18-16-16.59-30.18-28.92-42-13.8-13.23-29.93-23.22-47.23-31.22s-35.38-14.56-51.91-24.19c-15.13-8.81-28.9-20.48-36.47-36.6-7.77-16.56-8.65-35.57-4.64-53.25,8.23-36.33,35.37-63.41,67.43-80.46,37-19.66,78.61-26.44,118.8-36.39,28.64-7.08,69.77-17.58,76.85-51.52,3.38-16.18-3.09-32.64-12.77-45.44-11.28-14.93-27.29-25.33-41.36-37.36-27.06-23.12-45.35-55-49.06-90.62a141.58,141.58,0,0,1-.22-26c.06-.64-.94-.63-1,0Z" transform="translate(-102.66 16)"/><path class="cls-49" d="M294-12.2a136.31,136.31,0,0,0,27.24,94.39c10.95,14.34,24.71,25.4,38.8,36.48,15.19,11.94,30.25,25,37.14,43.65,6.53,17.63,2.94,36.35-10.62,49.56-12.62,12.29-30.05,18.76-46.72,23.34-40.29,11.07-82.29,16.33-121.08,32.46-32.95,13.71-64.09,35.78-79.36,69-13.23,28.81-14,64.69,7,90.13,23.83,28.9,63.27,37.12,94.66,54.74,33.37,18.73,63.68,50.5,67.22,90.23,1.9,21.22-3.4,42.32-10.74,62.07-6.86,18.44-14.78,36.74-15.16,56.74-.38,19.48,4.45,38.86,7.46,58,3.27,20.77,6.15,41.59,9.33,62.37q2.4,15.64,5.1,31.24c.11.64,1.07.37,1-.26-7.15-41-12.71-82.31-19.4-123.4-1.69-10.38-2.91-20.89-2.32-31.42s3.33-21,6.78-31c6.72-19.5,15.13-38.17,18.12-58.77,2.67-18.42,1-37.07-6.51-54.21-7-16-18.2-30-31.16-41.6-14-12.53-30-22-47-29.76-17.4-8-35.46-14.76-51.81-24.83-15.71-9.67-29.25-22.59-36-40.08-6.42-16.64-6.31-35.22-1.81-52.32,9.74-37,38.77-63.6,72.13-80.07,38.06-18.79,80.42-24.93,121.23-35,28.54-7,68.8-18.69,73.71-53.17,5.41-37.91-32.17-60.6-56.76-81.45-27.26-23.13-45.67-55.29-49.24-91.1a141.58,141.58,0,0,1-.11-26c.06-.64-.94-.64-1,0Z" transform="translate(-102.66 16)"/><path class="cls-50" d="M294.06-12.45a135.86,135.86,0,0,0,27.34,95C332,96.42,345.26,107.28,359,117.84c15.24,11.69,30.65,24.06,38.77,42S404,198,390,212.37c-12.46,12.82-30.24,19.56-47.14,24.18-40.37,11-82.43,15.86-121.58,31.24-33,13-64.77,33.92-81.51,66.15-14.77,28.44-17.67,65.14,1.95,92.11,21.93,30.15,61.23,39.68,92.66,56.22,33.25,17.5,65,47,71.91,85.42,3.91,21.64-.33,43.87-7.09,64.49-6,18.4-13.93,36.44-15.14,56-1.23,20,3.22,40.13,6,59.87,2.92,21,5.59,42,8.84,62.86q2.43,15.71,5.38,31.32c.12.64,1.08.37,1-.26-4-21.13-7.14-42.4-10.06-63.7-2.88-21-6.21-42.06-8.86-63.13-1.28-10.13-2-20.44-.94-30.63s3.91-20.33,7.2-30.13c6.48-19.34,13.8-38.23,15.7-58.73,1.71-18.45-1.16-36.82-9.51-53.43-7.92-15.77-19.9-29.32-33.41-40.55-15-12.44-31.9-21.49-49.57-29.44-17.13-7.7-34.75-14.79-50.37-25.37-15.37-10.42-27.78-24.39-33.26-42.39-5.19-17.06-4.08-35.52,1.21-52.41,11.41-36.41,41.39-62,75.05-77.68,38.55-18,81.05-23.72,122-33.64,28.68-6.94,68.88-18.95,73.11-53.76,2-16.56-5.65-32.86-16.11-45.27-12.37-14.65-29-24.81-43.5-37.1-27.18-23.07-45.44-55.41-48.86-91.11a141.58,141.58,0,0,1,0-26c.06-.65-.94-.64-1,0Z" transform="translate(-102.66 16)"/><path class="cls-51" d="M294.12-12.71a135.46,135.46,0,0,0,26.41,94.29c10.61,14.12,23.87,25.26,37.9,35.82,15.63,11.78,31.72,23.91,40.63,41.85,8.66,17.44,8.17,37.78-5,52.81-11.36,12.93-28.33,20-44.49,24.77-40.27,11.86-82.5,15.75-122.2,29.85-34,12.07-67.42,31.79-86.37,63.48-16.49,27.56-21.88,64.23-5,92.91,18.9,32.09,58.07,43.51,89.5,58.92,34.08,16.71,68,44,78.29,82.12,5.74,21.26,3,43.74-2.69,64.69-5.29,19.41-13.53,38.12-15.33,58.34-1.84,20.6,2.22,41.43,4.68,61.82,2.49,20.65,4.89,41.32,8.12,61.88q2.47,15.76,5.67,31.4c.13.63,1.09.37,1-.26-4.46-21.67-7.65-43.56-10.41-65.5-2.63-20.92-5.63-41.88-7.61-62.87a138.26,138.26,0,0,1-.07-29.75c1.39-11.22,4.66-22.09,8.11-32.82,6.16-19.13,12.16-38.29,12.71-58.56a97.08,97.08,0,0,0-13.22-52.31c-9-15.23-21.65-28.13-35.65-38.82-16-12.23-33.9-20.87-52.19-29.08-17.37-7.79-35.14-15.58-50.15-27.51-14.17-11.26-24.44-26.18-28.27-44-3.74-17.43-1.4-35.77,4.83-52.34,13.94-37.07,47.09-61.63,82.62-76.28,38.62-15.92,80.38-21,120.7-30.85,28.73-7,67.93-20.7,69.5-56.05,1.72-38.66-37.2-59.26-62.48-80.73C316.38,81.39,298.18,48.77,295,13a141.42,141.42,0,0,1,.14-25.7c.06-.64-.94-.63-1,0Z" transform="translate(-102.66 16)"/><path class="cls-52" d="M294.17-13A135.21,135.21,0,0,0,320.68,82c10.75,14.22,24.15,25.43,38.39,36,15.62,11.56,31.77,23.32,41.2,40.8,9,16.61,10.08,36.57-1.67,52.14-10.46,13.86-27.53,21.54-43.68,26.58-20.15,6.29-41.22,9.79-61.89,13.92s-41.43,8.49-61.51,15.09c-34.6,11.38-69.12,30.15-89.72,61.22-17.83,26.88-25,63.23-10.43,93.14,16.47,33.81,55.46,46.9,87.1,61.92,34.52,16.38,69.89,41.64,82.81,79.3,7.14,20.82,5.84,43.32,1.09,64.52-4.44,19.85-12.42,38.87-14.78,59.19-2.38,20.53,1,41.36,3,61.78,2.14,21.11,4.32,42.24,7.64,63.21q2.49,15.84,6,31.49c.14.63,1.1.37,1-.26a633.49,633.49,0,0,1-10.54-65.84c-2.39-21-5-42.15-6.39-63.26a141.64,141.64,0,0,1,1.12-32.66c1.67-10,4.51-19.76,7.4-29.47,5.81-19.53,11-39.3,10.5-59.86a97.36,97.36,0,0,0-16.93-52.64c-10-14.62-23.21-26.83-37.61-37-16.57-11.7-34.91-19.92-53.29-28.31-17.31-7.91-34.92-16.33-49.19-29.18a76,76,0,0,1-25-46.74c-2.38-17.87,1.12-36.25,8.45-52.63,16-35.72,49.82-58.71,85.32-72.41,39.79-15.35,82.51-20,123.69-30.13,28.61-7.07,66.14-22.44,65.66-57.61-.54-38.76-39.66-58.12-65.24-79.93C316,81.16,298,48.46,294.93,12.75A141.53,141.53,0,0,1,295.17-13c.07-.64-.93-.64-1,0Z" transform="translate(-102.66 16)"/><path class="cls-53" d="M294.23-13.22a134.93,134.93,0,0,0,26.2,95C331.2,96.13,344.61,107.46,359,118c15.95,11.64,32.65,23.24,42.67,40.75,9.48,16.57,11.42,36.83-.14,52.92-10.18,14.17-27.3,22-43.47,27.14-20.13,6.35-41.29,9.72-62,13.7s-41.55,8.1-61.76,14.36C199,277.79,163.48,296,141.66,327c-18.56,26.31-26.85,62.31-14,92.81,14.71,34.85,52.87,49.34,84.68,64.21,35,16.36,71.81,40.08,86.72,77.56,8.15,20.48,8,43,4,64.39-3.67,20-11.08,39.11-13.73,59.28-2.74,20.91,0,42.2,1.71,63.08s3.64,42,7,62.82q2.51,15.68,6.18,31.12a.5.5,0,0,0,1-.26c-5.13-21.46-8.3-43.29-10.54-65.22-2.15-20.92-4.21-42-5.16-63a156.74,156.74,0,0,1,1.72-34c1.73-9.9,4.44-19.6,7.07-29.29,5.34-19.71,9.7-39.82,8.2-60.37-2.79-38.34-28.19-67.56-59.07-88.06-16.94-11.25-35.52-19.23-53.87-27.83-17.14-8-34.45-16.93-48.06-30.34-27.2-26.79-28.32-67.47-12.32-100.49,17.27-35.66,52.29-58,88.47-71.22,40.09-14.61,82.86-18.87,124.13-28.95,28.95-7.08,66.57-23.22,64.9-58.89-1.84-39.24-41.84-57.86-67.84-80.14-27.06-23.2-45-56-47.93-91.67a140.76,140.76,0,0,1,.34-25.72c.07-.64-.93-.63-1,0Z" transform="translate(-102.66 16)"/><path class="cls-54" d="M294.29-13.47a134.73,134.73,0,0,0,26.28,95.68C331.48,96.62,345,108,359.64,118.52c15.92,11.44,32.64,22.73,43.12,39.75,10.14,16.49,13.1,37.15,1.81,53.87-9.62,14.26-26.28,22.29-42.14,27.53-20.44,6.75-42.14,10-63.27,13.91-21.28,3.93-42.61,7.92-63.38,14.08-35.44,10.51-71,28-93.8,58.12-19.75,26.06-29.36,62.6-17.37,94,13.4,35.08,50,50.77,81.7,65.48,34.82,16.19,71.85,37.61,89.39,73.51,9.41,19.27,11.08,41,8.61,62-2.57,21.91-10.22,42.79-13.23,64.61-2.81,20.36-.93,41.06.32,61.46,1.3,21.19,2.91,42.39,6.23,63.37q2.55,16.17,6.6,32a.5.5,0,0,0,1-.26c-5.66-22-8.81-44.57-10.78-67.22-1.83-21-3.48-42.22-3.74-63.31a172.31,172.31,0,0,1,2.66-33.71c1.87-10,4.52-19.87,6.89-29.78,4.75-19.84,7.9-40.34,5.08-60.72-5.23-37.73-32.66-65.35-63.78-84.67-32.68-20.29-73.84-29.75-100.65-58.68-26-28.1-25.08-69.63-7.91-102.08,18.61-35.17,54.52-56.74,91.1-69.35,40.69-14,83.85-17.84,125.48-28.08,29-7.14,65.88-24,63.34-59.69-2.81-39.28-43-57.45-69.33-79.72-27.4-23.2-45.66-56.09-48.65-92.06a140.07,140.07,0,0,1,.39-26.38c.07-.64-.93-.64-1,0Z" transform="translate(-102.66 16)"/><path class="cls-55" d="M294.35-13.73a134.49,134.49,0,0,0,25.76,95.51c10.51,14.06,23.54,25.43,37.75,35.6,16.06,11.48,33.37,22.32,44.8,38.82,10.82,15.61,15.95,35.81,6.68,53.4-8.15,15.48-24.66,24.53-40.53,30.25-19.54,7.05-40.53,10.22-60.9,13.86-21.62,3.87-43.31,7.55-64.57,13.14-37.06,9.77-74.42,26.32-99.61,56.23-20.86,24.77-32.15,59.94-23.56,91.86,9.9,36.78,44.78,55.07,76.74,70,35.63,16.66,74.22,35.72,94.9,71,11.1,18.93,14.41,40.82,12.94,62.49-1.49,21.91-8.17,42.83-11.57,64.43-3.36,21.4-2.16,43.17-1.28,64.71.86,21.06,2.19,42.14,5.51,63a292.27,292.27,0,0,0,6.82,31.65.5.5,0,0,0,1-.26c-6-21.76-9.08-44.11-10.76-66.58-1.58-21.24-2.69-42.74-2.45-64a199.85,199.85,0,0,1,3.31-34.78c2-10.79,4.73-21.43,6.86-32.19,3.88-19.52,5.66-39.79,1.71-59.46-7.59-37.86-37.83-64.2-69.91-82.62-33.75-19.38-76.87-30-100.91-62.79-22.1-30.16-17.18-71.53,1.52-102,21.15-34.51,59.09-54.63,96.71-66.17,41.51-12.74,85.24-15.36,127-27.06,15-4.21,30.36-10.38,41.89-21.17,11.28-10.55,17-25.38,14.6-40.77-6-38.91-46.23-55.47-72.72-78.5-26.75-23.25-44.41-55.91-47.17-91.42a140.07,140.07,0,0,1,.52-26.14c.07-.63-.93-.63-1,0Z" transform="translate(-102.66 16)"/><path class="cls-56" d="M294.4-14A134.4,134.4,0,0,0,320.22,82.2C331,96.5,344.34,108,358.9,118.29c16.38,11.53,34,22.35,45.74,39,11,15.69,16.38,36.15,7,53.94-8.29,15.65-25,24.7-41.11,30.41-19.64,7-40.7,10-61.16,13.54-21.6,3.72-43.27,7.24-64.54,12.61-37.25,9.4-74.74,25.37-100.78,54.59C122.15,347,109.74,382.34,117.49,415c8.76,36.94,42.25,56.41,74.14,71.58,36.16,17.19,76,35.1,98.2,70.33,11.57,18.36,15.71,39.89,15,61.37-.69,22.34-6.76,43.8-10.12,65.77-3.21,21-2.78,42.35-2.36,63.54.41,20.92,1.41,41.89,4.67,62.59a254.92,254.92,0,0,0,7.17,32.08.5.5,0,0,0,1-.26c-6.3-21.48-9.35-43.65-10.73-66-1.34-21.71-1.89-43.7-1.1-65.44,1.52-41.92,19.42-83,9.5-125.08-9-38.31-41-63.8-74-81.86C195,485.11,152,473.51,129.34,439.76c-20.7-30.87-14.86-71.86,4.27-101.95,22-34.56,60.76-54.36,98.93-65.61,41.36-12.19,84.75-14.75,126.3-25.89,15.5-4.16,31.49-10.35,43.41-21.45,11.43-10.64,17.18-25.6,14.73-41.16-6.21-39.41-47.27-55.9-74.24-79-27.3-23.42-45.31-56.43-47.95-92.51A140.07,140.07,0,0,1,295.4-14c.08-.64-.92-.63-1,0Z" transform="translate(-102.66 16)"/><path class="cls-57" d="M294.46-14.23a134.29,134.29,0,0,0,25.9,96.81c10.88,14.42,24.43,26.06,39.2,36.33C376.07,130.39,394,141.06,406,157.58c11.36,15.58,17.32,35.94,8.46,54.13-7.69,15.78-24.15,25.11-40,30.95-19.35,7.12-40.2,10.12-60.45,13.51-21.86,3.66-43.79,7-65.37,12.07-38.2,9-76.86,24.35-104.24,53.51-22.64,24.12-36,58.9-29.78,92,7.07,37.7,39.66,58.77,71.77,74.38,36.62,17.8,77.78,34.53,101.45,69.67,12,17.86,16.92,39,17,60.29.14,22.17-5,43.65-8.34,65.44-3.25,21.17-3.6,42.61-3.65,64-.05,21.06.63,42.19,3.94,63a223.12,223.12,0,0,0,7.38,31.69c.19.62,1.15.36,1-.26-6.62-21.19-9.62-43.19-10.7-65.32a629.43,629.43,0,0,1,.22-65.16c2.33-42,18.63-84.15,6.92-126.13-10.66-38.25-44-62.54-77.53-80.13-34.45-18.06-77.86-30.85-99-66.29-19.12-32.13-11.43-73.46,9-103,23.41-33.79,62.87-52.71,101.43-63.36,21-5.81,42.6-9.49,64.12-13.05,21.23-3.51,42.87-6.43,63.63-12.26,15.2-4.26,30.77-10.61,42.25-21.8a46,46,0,0,0,13.5-41.34c-7-39.38-48.33-55.54-75.6-78.64-27.63-23.42-46-56.6-48.69-92.94a139.57,139.57,0,0,1,.67-26.8c.08-.64-.92-.64-1,0Z" transform="translate(-102.66 16)"/><path class="cls-58" d="M294.52-14.49a134.16,134.16,0,0,0,25.39,96.67c10.8,14.48,24.29,26.27,39.09,36.52,16.21,11.21,33.84,21.35,46.5,36.8s20.4,36.38,12.25,55.62c-7,16.48-23.27,26.41-39.33,32.53-19.08,7.27-39.68,10.26-59.74,13.53-22.1,3.6-44.29,6.76-66.18,11.57-38.73,8.52-78.06,23-106.72,51.49-23.73,23.58-38.5,57.88-33.92,91.64A82,82,0,0,0,133.58,457c13.1,14,29.94,23.81,46.9,32.32,36.64,18.39,78.28,33.52,103.93,67.4,13.31,17.58,19.46,38.87,20.45,60.71,1,22.15-3.21,43.84-6.5,65.63-3.27,21.59-4.4,43.41-4.91,65.23-.49,20.91-.11,41.93,3.18,62.63a196.73,196.73,0,0,0,7.6,31.3c.2.61,1.16.35,1-.26-13.87-41.77-12.38-87.87-9-131.23,3.29-42.07,17.75-85.14,3.73-126.78-12.67-37.63-47.19-60.34-81-77.33-35-17.56-78.48-31.74-97.84-68.79-17.38-33.26-7.93-74.75,13.79-103.62,25-33.19,65.21-51.23,104.4-61.3,21.43-5.51,43.31-9,65.14-12.46,21.2-3.36,42.88-6.17,63.52-12.23,15-4.42,30.4-11,41.36-22.56a46,46,0,0,0,11.52-42.8c-9.25-39-50.57-54.2-78.1-77.84s-45.42-56.74-47.95-93a138.81,138.81,0,0,1,.79-26.57c.08-.63-.92-.63-1,0Z" transform="translate(-102.66 16)"/><path class="cls-59" d="M294.58-14.74a134.07,134.07,0,0,0,25.47,97.3c10.72,14.32,24,26.06,38.73,36.18,16.79,11.56,35.25,21.76,48.47,37.64,12.35,14.83,20.53,35.11,13.65,54.19-6.3,17.44-23,28.05-39.54,34.44-19.42,7.51-40.46,10.45-60.93,13.67-22.12,3.49-44.34,6.51-66.27,11.11-39.35,8.27-79.34,22.46-108.83,50.88-24.57,23.68-40.07,58.51-35.63,93a82.87,82.87,0,0,0,21,45.21c12.93,14.25,29.68,24.41,46.67,33.07,36.54,18.63,78.43,32.78,105,65.84,13.7,17,20.57,38,22.32,59.57,1.83,22.48-1.69,44.71-4.86,66.89-3,21.24-4.89,42.61-5.88,64-1,21-.94,42.21,2.4,63a175.85,175.85,0,0,0,7.81,30.91c.21.61,1.18.35,1-.26-14.61-41.47-11.77-87.26-7.61-130.31,4-41.53,16.27-84.74,1.76-125.61-13.57-38.21-49.12-60.15-83.83-77-35.29-17.19-78.45-32.31-97.15-69.86-16.68-33.49-6.94-74.72,14.86-103.46C158.76,302,199.94,284,239.87,274.08c22-5.48,44.48-8.86,66.88-12.28,21.35-3.26,43.22-6,64-12.12,15.31-4.53,31.08-11.43,41.91-23.55a46.13,46.13,0,0,0,10.17-42.75c-10.08-39.21-52-54.06-79.9-77.94-27.62-23.65-45.79-57.12-48.21-93.61a139.63,139.63,0,0,1,.89-26.57c.08-.64-.93-.63-1,0Z" transform="translate(-102.66 16)"/><path class="cls-60" d="M294.63-15a134.12,134.12,0,0,0,25.55,97.94c10.85,14.47,24.36,26.33,39.26,36.46,16.76,11.4,35.18,21.39,48.67,36.84C421,171,430,191.41,423.6,211c-5.68,17.31-21.58,28.17-37.72,34.78-19.27,7.88-40.29,10.84-60.74,14-22.1,3.41-44.3,6.24-66.26,10.51-39.74,7.72-80.18,20.85-111,48.15-26,23.06-43.31,57.37-40.72,92.69A83.66,83.66,0,0,0,125,457.16C136.83,472.1,152.94,483,169.54,492c36.55,19.8,79,32.18,108,63.55,32.05,34.66,30.25,82.28,24.41,126-5.7,42.64-12.68,87.3-5.76,130.2a159.26,159.26,0,0,0,8,30.51c.22.6,1.19.34,1-.26-15.56-41.67-11.11-87.79-6-131,4.91-41.86,15.09-86.49-2-127-16.23-38.41-54.64-58.55-90.56-75.18-35.49-16.44-77.91-34.19-93.09-73.52C100,400.43,112,359.69,135.65,332.18c27.54-32,68.65-48.67,108.92-57.89,21.8-5,44-8.12,66.09-11.37,21.4-3.15,43.37-5.77,64.1-12.16,15.11-4.66,30.64-11.73,41.06-24s13.32-28.71,8.62-44.1c-11.73-38.38-52.77-52.55-80.82-76.33s-46.68-57.69-49-94.7a139.79,139.79,0,0,1,1-26.58c.09-.63-.92-.63-1,0Z" transform="translate(-102.66 16)"/><path class="cls-61" d="M294.69-15.25a134.05,134.05,0,0,0,25.43,98.33c10.79,14.4,24.21,26.29,39.06,36.36,17,11.56,35.86,21.46,49.89,36.84,13.32,14.6,23.08,35.13,17.19,55.09-5.07,17.19-20.27,28.32-36,35.14-19.56,8.45-41.1,11.44-62,14.58-22.62,3.4-45.35,6.14-67.85,10.32-40.25,7.48-81.27,20.28-112.82,47.46-26.48,22.82-44.29,56.71-42.63,92.24a84.9,84.9,0,0,0,17.25,47.7c11.65,15.29,27.71,26.56,44.38,35.77,36.75,20.3,80.08,31.78,109.83,63,31.77,33.3,32.41,80.48,27.29,123.49C298.52,724.26,289,768.57,296,812.12a143.55,143.55,0,0,0,8.23,30.12c.23.6,1.2.34,1-.26-16.63-42.1-10.23-88.8-4.31-132.4,5.59-41.11,13-85.72-4.92-125-17.45-38.15-56.48-57-92.74-73.4C167.29,495,125.06,476,110.75,436c-12.62-35.3,0-76,24.17-103.29,28.43-32.08,70.18-48.4,111.12-57.38,22.08-4.84,44.51-7.83,66.88-11,21.58-3.06,43.76-5.6,64.64-12.09,15.17-4.73,30.75-11.94,41-24.49s12.8-29.06,7.85-44.45c-12.64-39.28-55.53-53.05-84.13-77.88-27.55-23.92-45.65-57.63-47.71-94.3a139.84,139.84,0,0,1,1.08-26.35c.08-.64-.92-.63-1,0Z" transform="translate(-102.66 16)"/><path class="cls-62" d="M294.77-15.64A134.33,134.33,0,0,0,322.3,86.12C334.81,102,350.44,114.2,367.37,125c18.55,11.88,38.33,23.23,51.15,41.72,11.66,16.84,16.56,38.75,5.14,57-9.48,15.18-26.81,23.62-43.31,28.84-20.33,6.43-41.93,8.89-63,11.78-24,3.3-48.05,6.26-71.74,11.33-39,8.33-78.46,23.16-107.28,51.7C112.55,353,97,391.36,104.61,427.71c8,37.94,40.91,61.15,73.69,77.17,35,17.12,75.12,29.14,101.48,59.57,27.65,31.91,29.57,76.29,25.51,116.32-4.37,43-16.27,86.1-9.86,129.56a133.13,133.13,0,0,0,8.8,31.91c.24.59,1.21.33,1-.26-18.05-43.2-9-91-2.23-135.57,5.71-37.79,9.75-79.06-5.5-115.24C282,554.43,247.51,535,212.8,519.4s-73.93-30.46-95.53-63.71c-22.32-34.36-14.83-79.32,8-111.43,24.28-34.14,64.6-53.14,104.05-63.61,45.12-12,92.13-13.11,137.55-23.37,29.78-6.72,67.27-24,64.3-60.44-1.5-18.45-12.94-35.06-26.49-47C388.55,135.59,369,126,351.81,113.25,320,89.61,297.9,54,294.79,14.08a138.12,138.12,0,0,1,.94-29.45c.09-.63-.88-.9-1-.27Z" transform="translate(-102.66 16)"/></svg>