<?xml version="1.0" encoding="UTF-8" standalone="no"?>
<!DOCTYPE svg PUBLIC "-//W3C//DTD SVG 1.1//EN" "http://www.w3.org/Graphics/SVG/1.1/DTD/svg11.dtd">
<svg width="100%" height="100%" viewBox="0 0 512 512" version="1.1" xmlns="http://www.w3.org/2000/svg" xmlns:xlink="http://www.w3.org/1999/xlink" xml:space="preserve" xmlns:serif="http://www.serif.com/" style="fill-rule:evenodd;clip-rule:evenodd;stroke-linejoin:round;stroke-miterlimit:2;">
    <g transform="matrix(2.13333,0,0,2.18803,256,256)">
        <g id="logo-illustrator.svg" transform="matrix(1,0,0,1,-120,-117)">
            <path d="M42.5,0L197.5,0C221,0 240,19 240,42.5L240,191.5C240,215 221,234 197.5,234L42.5,234C19,234 0,215 0,191.5L0,42.5C0,19 19,0 42.5,0Z" style="fill:rgb(51,0,0);fill-rule:nonzero;"/>
            <path d="M116,140L78.8,140L71.2,163.5C71,164.4 70.2,165 69.3,164.9L50.5,164.9C49.4,164.9 49.1,164.3 49.4,163.1L81.6,70.4C81.9,69.4 82.2,68.3 82.6,67.1C83,65 83.2,62.8 83.2,60.6C83.1,60.1 83.5,59.6 84,59.5L109.9,59.5C110.7,59.5 111.1,59.8 111.2,60.3L147.7,163.3C148,164.4 147.7,164.9 146.7,164.9L125.8,164.9C125.1,165 124.4,164.5 124.2,163.8L116,140ZM84.6,119.7L110,119.7C109.4,117.6 108.6,115.1 107.7,112.5C106.8,109.8 105.9,106.9 105,103.9C104,100.8 103.1,97.8 102.1,94.7C101.1,91.6 100.2,88.7 99.4,85.8C98.6,83 97.9,80.4 97.2,78L97,78C96.1,82.3 95,86.6 93.6,90.9C92.1,95.7 90.6,100.7 89,105.7C87.6,110.8 86.1,115.5 84.6,119.7ZM170,77C166.7,77.1 163.5,75.8 161.1,73.5C158.8,71 157.6,67.7 157.7,64.3C157.6,60.9 158.9,57.7 161.3,55.4C163.7,53.1 166.9,51.9 170.2,51.9C174.1,51.9 177.1,53.1 179.3,55.4C181.5,57.8 182.7,61 182.6,64.3C182.7,67.7 181.5,71 179.1,73.5C176.8,75.9 173.4,77.2 170,77ZM158.8,163.8L158.8,86.8C158.8,85.8 159.2,85.4 160.1,85.4L179.9,85.4C180.8,85.4 181.2,85.9 181.2,86.8L181.2,163.8C181.2,164.9 180.8,165.4 179.9,165.4L160.3,165.4C159.3,165.4 158.8,164.8 158.8,163.8Z" style="fill:rgb(255,154,0);fill-rule:nonzero;"/>
        </g>
        <g id="logo-illustrator.svg1" serif:id="logo-illustrator.svg">
        </g>
    </g>
</svg>
