<?xml version="1.0" encoding="UTF-8" standalone="no"?>
<!DOCTYPE svg PUBLIC "-//W3C//DTD SVG 1.1//EN" "http://www.w3.org/Graphics/SVG/1.1/DTD/svg11.dtd">
<svg width="100%" height="100%" viewBox="0 0 512 512" version="1.1" xmlns="http://www.w3.org/2000/svg" xmlns:xlink="http://www.w3.org/1999/xlink" xml:space="preserve" xmlns:serif="http://www.serif.com/" style="fill-rule:evenodd;clip-rule:evenodd;stroke-linejoin:round;stroke-miterlimit:2;">
    <g transform="matrix(4.16667,0,0,4.16667,256,256)">
        <g id="logo-php.svg" transform="matrix(1,0,0,1,-64,-64)">
            <path d="M64,33.039C30.26,33.039 2.906,46.901 2.906,64C2.906,81.099 30.26,94.961 64,94.961C97.74,94.961 125.094,81.099 125.094,64C125.094,46.901 97.74,33.039 64,33.039ZM48.103,70.032C46.645,71.396 45.026,71.959 43.243,72.539C41.46,73.12 39.191,73 36.432,73L30.179,73L28.446,83L21.145,83L27.66,49L41.7,49C45.924,49 49.005,50.215 50.942,52.432C52.879,54.649 53.461,57.796 52.689,61.769C52.37,63.406 51.833,64.928 51.075,66.284C50.316,67.641 49.325,68.908 48.103,70.032ZM69.414,73L72.295,58.58C72.623,56.892 72.503,55.638 71.934,55.025C71.364,54.411 70.152,54 68.299,54L62.509,54L58.778,73L51.534,73L58.049,40L65.293,40L63.561,49L70.014,49C74.075,49 76.875,49.815 78.416,51.231C79.957,52.647 80.419,54.587 79.803,57.759L76.772,73L69.414,73ZM109.673,61.822C109.355,63.459 108.817,64.955 108.06,66.31C107.302,67.667 106.312,68.908 105.089,70.032C103.631,71.396 102.011,71.959 100.229,72.539C98.447,73.12 96.176,73 93.417,73L87.164,73L85.432,83L78.131,83L84.645,49L98.686,49C102.91,49 105.991,50.215 107.927,52.432C109.862,54.649 110.445,57.85 109.673,61.822ZM95.919,54L90.918,54L88.191,68L92.633,68C95.575,68 97.769,67.71 99.209,66.6C100.651,65.492 101.622,63.772 102.127,61.179C102.611,58.688 102.391,56.745 101.467,55.721C100.542,54.697 98.693,54 95.919,54ZM38.934,54L33.932,54L31.205,68L35.646,68C38.589,68 40.782,67.71 42.223,66.6C43.664,65.492 44.636,63.772 45.14,61.179C45.624,58.688 45.404,56.745 44.48,55.721C43.556,54.697 41.708,54 38.934,54Z" style="fill:rgb(97,129,182);fill-rule:nonzero;"/>
        </g>
        <g id="logo-php.svg1" serif:id="logo-php.svg">
        </g>
    </g>
</svg>
